<svg width="465" height="433" viewBox="0 0 465 433" fill="none" xmlns="http://www.w3.org/2000/svg">
<g clip-path="url(#clip0_50_930)">
<path d="M15.36 133.51C16.75 132.67 18.24 132.03 19.77 131.59L20.68 127.23L28.05 127.1L29.11 131.43C30.65 131.81 32.16 132.4 33.58 133.19L37.31 130.75L42.61 135.87L40.3 139.68C41.14 141.07 41.78 142.56 42.22 144.09L46.58 145L46.71 152.37L42.38 153.43C42 154.97 41.41 156.48 40.62 157.9L43.06 161.63L37.94 166.93L34.13 164.62C32.74 165.46 31.25 166.1 29.72 166.54L28.81 170.9L21.44 171.03L20.38 166.7C18.84 166.32 17.33 165.73 15.91 164.94L12.18 167.38L6.88003 162.26L9.19003 158.45C8.35003 157.06 7.71003 155.57 7.27003 154.04L2.91003 153.13L2.78003 145.76L7.11003 144.7C7.49003 143.16 8.08003 141.65 8.87003 140.23L6.43003 136.5L11.55 131.2L15.36 133.51ZM19.29 143.33C16.26 146.47 16.34 151.48 19.49 154.51C22.63 157.54 27.64 157.46 30.67 154.31C33.7 151.17 33.62 146.16 30.47 143.13C27.33 140.1 22.32 140.18 19.29 143.33Z" fill="#F13C2F"/>
<path d="M270.79 9.93999C271.98 9.21999 273.24 8.67999 274.54 8.30999L275.31 4.59999L281.58 4.48999L282.48 8.16999C283.79 8.48999 285.08 8.98999 286.29 9.66999L289.46 7.58999L293.97 11.95L292 15.19C292.72 16.38 293.26 17.64 293.63 18.94L297.34 19.71L297.45 25.98L293.77 26.88C293.45 28.19 292.95 29.48 292.27 30.69L294.35 33.86L289.99 38.38L286.75 36.41C285.56 37.13 284.3 37.67 283 38.04L282.23 41.75L275.96 41.86L275.06 38.18C273.75 37.86 272.46 37.36 271.25 36.68L268.08 38.76L263.57 34.4L265.54 31.16C264.82 29.97 264.28 28.71 263.91 27.41L260.2 26.64L260.09 20.37L263.77 19.47C264.09 18.16 264.59 16.87 265.27 15.66L263.19 12.49L267.55 7.97999L270.79 9.94999V9.93999ZM274.13 18.3C271.55 20.98 271.62 25.24 274.3 27.82C276.97 30.4 281.24 30.33 283.82 27.65C286.4 24.98 286.33 20.71 283.65 18.13C280.97 15.55 276.71 15.62 274.13 18.3Z" fill="#F13C2F"/>
<path d="M58.64 14.21C60.57 13.05 62.62 12.16 64.73 11.56L65.99 5.52998L76.18 5.34998L77.65 11.33C79.79 11.86 81.87 12.67 83.83 13.76L88.98 10.38L96.31 17.46L93.12 22.73C94.28 24.66 95.17 26.71 95.77 28.83L101.8 30.09L101.98 40.28L96 41.75C95.47 43.89 94.66 45.97 93.57 47.93L96.95 53.08L89.87 60.41L84.6 57.22C82.67 58.38 80.62 59.27 78.5 59.87L77.24 65.9L67.05 66.08L65.58 60.1C63.44 59.57 61.36 58.76 59.4 57.67L54.25 61.05L46.92 53.97L50.11 48.7C48.95 46.77 48.06 44.72 47.46 42.6L41.43 41.34L41.25 31.15L47.23 29.68C47.76 27.54 48.57 25.46 49.66 23.5L46.28 18.35L53.36 11.02L58.63 14.21H58.64ZM64.07 27.79C59.87 32.13 60 39.06 64.34 43.25C68.68 47.44 75.61 47.32 79.8 42.98C83.99 38.64 83.87 31.71 79.53 27.52C75.19 23.33 68.26 23.45 64.07 27.79Z" fill="#F13C2F"/>
<path d="M223.03 188.73C224.42 187.89 225.91 187.25 227.44 186.81L228.35 182.45L235.72 182.32L236.78 186.65C238.32 187.03 239.83 187.62 241.25 188.41L244.98 185.97L250.28 191.09L247.97 194.9C248.81 196.29 249.45 197.78 249.89 199.31L254.25 200.22L254.38 207.59L250.05 208.65C249.67 210.19 249.08 211.7 248.29 213.12L250.73 216.85L245.61 222.15L241.8 219.84C240.41 220.68 238.92 221.32 237.39 221.76L236.48 226.12L229.11 226.25L228.05 221.92C226.51 221.54 225 220.95 223.58 220.16L219.85 222.6L214.55 217.48L216.86 213.67C216.02 212.28 215.38 210.79 214.94 209.26L210.58 208.35L210.45 200.98L214.78 199.92C215.16 198.38 215.75 196.87 216.54 195.45L214.1 191.72L219.22 186.42L223.03 188.73ZM226.96 198.55C223.93 201.69 224.01 206.7 227.16 209.73C230.3 212.76 235.31 212.68 238.34 209.53C241.37 206.39 241.29 201.38 238.14 198.35C235 195.32 229.99 195.4 226.96 198.55Z" fill="#F13C2F"/>
<path d="M243.8 320.66C245.19 319.82 246.68 319.18 248.21 318.74L249.12 314.38L256.49 314.25L257.55 318.58C259.09 318.96 260.6 319.55 262.02 320.34L265.75 317.9L271.05 323.02L268.74 326.83C269.58 328.22 270.22 329.71 270.66 331.24L275.02 332.15L275.15 339.52L270.82 340.58C270.44 342.12 269.85 343.63 269.06 345.05L271.5 348.78L266.38 354.08L262.57 351.77C261.18 352.61 259.69 353.25 258.16 353.69L257.25 358.05L249.88 358.18L248.82 353.85C247.28 353.47 245.77 352.88 244.35 352.09L240.62 354.53L235.32 349.41L237.63 345.6C236.79 344.21 236.15 342.72 235.71 341.19L231.35 340.28L231.22 332.91L235.55 331.85C235.93 330.31 236.52 328.8 237.31 327.38L234.87 323.65L239.99 318.35L243.8 320.66ZM247.73 330.48C244.7 333.62 244.78 338.63 247.93 341.66C251.07 344.69 256.08 344.61 259.11 341.46C262.14 338.32 262.06 333.31 258.91 330.28C255.77 327.25 250.76 327.33 247.73 330.48Z" fill="#F13C2F"/>
<path d="M66.81 238.1C67.75 237.53 68.75 237.1 69.78 236.81L70.39 233.87L75.36 233.78L76.08 236.7C77.12 236.96 78.14 237.35 79.1 237.89L81.61 236.24L85.19 239.69L83.63 242.26C84.2 243.2 84.63 244.2 84.92 245.23L87.86 245.84L87.95 250.81L85.03 251.53C84.77 252.57 84.38 253.59 83.84 254.55L85.49 257.06L82.04 260.64L79.47 259.08C78.53 259.65 77.53 260.08 76.5 260.37L75.89 263.31L70.92 263.4L70.2 260.48C69.16 260.22 68.14 259.83 67.18 259.29L64.67 260.94L61.09 257.49L62.65 254.92C62.08 253.98 61.65 252.98 61.36 251.95L58.42 251.34L58.33 246.37L61.25 245.65C61.51 244.61 61.9 243.59 62.44 242.63L60.79 240.12L64.24 236.54L66.81 238.1ZM69.46 244.72C67.41 246.84 67.47 250.22 69.59 252.26C71.71 254.31 75.09 254.25 77.13 252.13C79.18 250.01 79.12 246.63 77 244.59C74.88 242.54 71.5 242.6 69.46 244.72Z" fill="#F13C2F"/>
<path d="M74.1901 276.41C75.9001 275.37 77.7301 274.59 79.6101 274.06L80.7301 268.7L89.7901 268.54L91.09 273.86C92.99 274.33 94.84 275.05 96.59 276.02L101.17 273.02L107.69 279.32L104.85 284C105.89 285.71 106.67 287.54 107.2 289.42L112.56 290.54L112.72 299.6L107.4 300.9C106.93 302.8 106.21 304.65 105.24 306.4L108.24 310.98L101.95 317.5L97.27 314.66C95.56 315.7 93.73 316.48 91.85 317.01L90.7301 322.37L81.67 322.53L80.3701 317.21C78.4701 316.74 76.6201 316.02 74.8701 315.05L70.2901 318.05L63.7701 311.76L66.6101 307.08C65.5701 305.37 64.7901 303.54 64.2601 301.66L58.9001 300.54L58.7401 291.48L64.06 290.18C64.53 288.28 65.2501 286.43 66.2201 284.68L63.2201 280.1L69.5101 273.58L74.1901 276.42V276.41ZM79.02 288.48C75.29 292.34 75.4001 298.5 79.2601 302.23C83.1201 305.96 89.2801 305.85 93.0101 301.99C96.7401 298.13 96.63 291.97 92.77 288.24C88.91 284.51 82.75 284.62 79.02 288.48Z" fill="#F13C2F"/>
<path d="M463.34 18.83H325.8V250.58H463.34V18.83Z" fill="#F13C2F"/>
<path d="M459.17 23.1799H329.51V246.76H459.17V23.1799Z" fill="#F5F5F5"/>
<path d="M446.03 35.13H394.33V115.35H446.03V35.13Z" fill="white"/>
<path d="M422.93 42.22C422.93 43.29 422.07 44.15 421 44.15C419.93 44.15 419.07 43.29 419.07 42.22C419.07 41.15 419.93 40.29 421 40.29C422.07 40.29 422.93 41.15 422.93 42.22Z" fill="#E0E0E0"/>
<path d="M393.93 137.68H342.23V217.9H393.93V137.68Z" fill="white"/>
<path d="M370.83 144.77C370.83 145.84 369.97 146.7 368.9 146.7C367.83 146.7 366.97 145.84 366.97 144.77C366.97 143.7 367.83 142.84 368.9 142.84C369.97 142.84 370.83 143.7 370.83 144.77Z" fill="#E0E0E0"/>
<path d="M385.68 35.13H341.53V97.78H385.68V35.13Z" fill="white"/>
<path d="M365.21 40.82C365.21 41.71 364.49 42.42 363.61 42.42C362.73 42.42 362.01 41.7 362.01 40.82C362.01 39.94 362.73 39.22 363.61 39.22C364.49 39.22 365.21 39.94 365.21 40.82Z" fill="#E0E0E0"/>
<path d="M447.74 138.747L400.52 144.077L403.473 170.24L450.693 164.91L447.74 138.747Z" fill="white"/>
<path d="M424.68 148.05C425.586 148.05 426.32 147.316 426.32 146.41C426.32 145.504 425.586 144.77 424.68 144.77C423.774 144.77 423.04 145.504 423.04 146.41C423.04 147.316 423.774 148.05 424.68 148.05Z" fill="#E0E0E0"/>
<path d="M387.03 155.98C387.03 156.19 378.91 156.37 368.9 156.37C358.89 156.37 350.77 156.2 350.77 155.98C350.77 155.76 358.89 155.59 368.9 155.59C378.91 155.59 387.03 155.76 387.03 155.98Z" fill="#E0E0E0"/>
<path d="M387.03 161.72C387.03 161.93 378.91 162.11 368.9 162.11C358.89 162.11 350.77 161.94 350.77 161.72C350.77 161.5 358.89 161.33 368.9 161.33C378.91 161.33 387.03 161.5 387.03 161.72Z" fill="#E0E0E0"/>
<path d="M387.03 167.46C387.03 167.67 378.91 167.85 368.9 167.85C358.89 167.85 350.77 167.68 350.77 167.46C350.77 167.24 358.89 167.07 368.9 167.07C378.91 167.07 387.03 167.24 387.03 167.46Z" fill="#E0E0E0"/>
<path d="M387.03 173.2C387.03 173.41 378.91 173.59 368.9 173.59C358.89 173.59 350.77 173.42 350.77 173.2C350.77 172.98 358.89 172.81 368.9 172.81C378.91 172.81 387.03 172.98 387.03 173.2Z" fill="#E0E0E0"/>
<path d="M387.03 178.94C387.03 179.15 378.91 179.33 368.9 179.33C358.89 179.33 350.77 179.16 350.77 178.94C350.77 178.72 358.89 178.55 368.9 178.55C378.91 178.55 387.03 178.72 387.03 178.94Z" fill="#E0E0E0"/>
<path d="M387.03 184.68C387.03 184.89 378.91 185.07 368.9 185.07C358.89 185.07 350.77 184.9 350.77 184.68C350.77 184.46 358.89 184.29 368.9 184.29C378.91 184.29 387.03 184.46 387.03 184.68Z" fill="#E0E0E0"/>
<path d="M387.03 190.42C387.03 190.63 378.91 190.81 368.9 190.81C358.89 190.81 350.77 190.64 350.77 190.42C350.77 190.2 358.89 190.03 368.9 190.03C378.91 190.03 387.03 190.2 387.03 190.42Z" fill="#E0E0E0"/>
<path d="M443.31 149.83C443.34 150.04 435.32 151.35 425.41 152.74C415.49 154.14 407.43 155.1 407.4 154.89C407.37 154.68 415.38 153.37 425.3 151.98C435.21 150.58 443.28 149.62 443.31 149.83Z" fill="#E0E0E0"/>
<path d="M444.03 153.42C444.06 153.63 436.04 154.94 426.13 156.33C416.21 157.73 408.15 158.69 408.12 158.48C408.09 158.27 416.1 156.96 426.02 155.56C435.93 154.16 444 153.2 444.03 153.41V153.42Z" fill="#E0E0E0"/>
<path d="M444.69 156.73C444.72 156.94 436.71 158.25 426.79 159.65C416.87 161.05 408.81 162.01 408.78 161.8C408.75 161.59 416.76 160.28 426.68 158.88C436.59 157.48 444.66 156.52 444.69 156.73Z" fill="#E0E0E0"/>
<path d="M441.49 51.91C441.49 52.12 432.32 52.3 421.01 52.3C409.7 52.3 400.53 52.13 400.53 51.91C400.53 51.69 409.7 51.52 421.01 51.52C432.32 51.52 441.49 51.69 441.49 51.91Z" fill="#E0E0E0"/>
<path d="M441.49 55.3199C441.49 55.5299 432.32 55.7099 421.01 55.7099C409.7 55.7099 400.53 55.5399 400.53 55.3199C400.53 55.0999 409.7 54.9299 421.01 54.9299C432.32 54.9299 441.49 55.0999 441.49 55.3199Z" fill="#E0E0E0"/>
<path d="M441.49 58.74C441.49 58.95 432.32 59.13 421.01 59.13C409.7 59.13 400.53 58.96 400.53 58.74C400.53 58.52 409.7 58.35 421.01 58.35C432.32 58.35 441.49 58.52 441.49 58.74Z" fill="#E0E0E0"/>
<path d="M441.49 62.15C441.49 62.36 432.32 62.54 421.01 62.54C409.7 62.54 400.53 62.37 400.53 62.15C400.53 61.93 409.7 61.76 421.01 61.76C432.32 61.76 441.49 61.93 441.49 62.15Z" fill="#E0E0E0"/>
<path d="M441.49 65.5599C441.49 65.7699 432.32 65.9499 421.01 65.9499C409.7 65.9499 400.53 65.7799 400.53 65.5599C400.53 65.3399 409.7 65.1699 421.01 65.1699C432.32 65.1699 441.49 65.3399 441.49 65.5599Z" fill="#E0E0E0"/>
<path d="M441.49 68.97C441.49 69.18 432.32 69.36 421.01 69.36C409.7 69.36 400.53 69.19 400.53 68.97C400.53 68.75 409.7 68.58 421.01 68.58C432.32 68.58 441.49 68.75 441.49 68.97Z" fill="#E0E0E0"/>
<path d="M441.49 72.39C441.49 72.6 432.32 72.78 421.01 72.78C409.7 72.78 400.53 72.61 400.53 72.39C400.53 72.17 409.7 72 421.01 72C432.32 72 441.49 72.17 441.49 72.39Z" fill="#E0E0E0"/>
<path d="M441.49 82.51C441.49 82.72 432.32 82.9 421.01 82.9C409.7 82.9 400.53 82.73 400.53 82.51C400.53 82.29 409.7 82.12 421.01 82.12C432.32 82.12 441.49 82.29 441.49 82.51Z" fill="#E0E0E0"/>
<path d="M441.78 86.12C441.78 86.33 432.61 86.51 421.3 86.51C409.99 86.51 400.82 86.34 400.82 86.12C400.82 85.9 409.99 85.73 421.3 85.73C432.61 85.73 441.78 85.9 441.78 86.12Z" fill="#E0E0E0"/>
<path d="M442.07 89.72C442.07 89.93 432.9 90.11 421.59 90.11C410.28 90.11 401.11 89.94 401.11 89.72C401.11 89.5 410.28 89.33 421.59 89.33C432.9 89.33 442.07 89.5 442.07 89.72Z" fill="#E0E0E0"/>
<path d="M442.35 93.3299C442.35 93.5399 433.18 93.7199 421.87 93.7199C410.56 93.7199 401.39 93.5499 401.39 93.3299C401.39 93.1099 410.56 92.9399 421.87 92.9399C433.18 92.9399 442.35 93.1099 442.35 93.3299Z" fill="#E0E0E0"/>
<path d="M442.64 96.9299C442.64 97.1399 433.47 97.3199 422.16 97.3199C410.85 97.3199 401.68 97.1499 401.68 96.9299C401.68 96.7099 410.85 96.5399 422.16 96.5399C433.47 96.5399 442.64 96.7099 442.64 96.9299Z" fill="#E0E0E0"/>
<path d="M442.93 100.54C442.93 100.75 433.76 100.93 422.45 100.93C411.14 100.93 401.97 100.76 401.97 100.54C401.97 100.32 411.14 100.16 422.45 100.16C433.76 100.16 442.93 100.33 442.93 100.54Z" fill="#E0E0E0"/>
<path d="M168.58 36.74C169.97 35.9 171.46 35.26 172.99 34.82L173.9 30.46L181.27 30.33L182.33 34.66C183.87 35.04 185.38 35.63 186.8 36.42L190.53 33.98L195.83 39.1L193.52 42.91C194.36 44.3 195 45.79 195.44 47.32L199.8 48.23L199.93 55.6L195.6 56.66C195.22 58.2 194.63 59.71 193.84 61.13L196.28 64.86L191.16 70.16L187.35 67.85C185.96 68.69 184.47 69.33 182.94 69.77L182.03 74.13L174.66 74.26L173.6 69.93C172.06 69.55 170.55 68.96 169.13 68.17L165.4 70.61L160.1 65.49L162.41 61.68C161.57 60.29 160.93 58.8 160.49 57.27L156.13 56.36L156 48.99L160.33 47.93C160.71 46.39 161.3 44.88 162.09 43.46L159.65 39.73L164.77 34.43L168.58 36.74ZM172.51 46.56C169.48 49.7 169.56 54.71 172.71 57.74C175.85 60.77 180.86 60.69 183.89 57.54C186.92 54.4 186.84 49.39 183.69 46.36C180.55 43.33 175.54 43.41 172.51 46.56Z" fill="#F13C2F"/>
<path d="M0.530029 418.21L53.31 382.56L309.06 381.34L320.76 418.74L0.530029 418.21Z" fill="#455A64"/>
<path d="M320.1 432.81L0 432.58V417.51L320.24 418.51L320.1 432.81Z" fill="#455A64"/>
<path d="M312.24 418.42C312.24 418.56 243.12 418.65 157.87 418.61C72.6 418.57 3.48999 418.42 3.48999 418.28C3.48999 418.14 72.6 418.05 157.87 418.09C243.12 418.13 312.24 418.28 312.24 418.42Z" fill="#263238"/>
<path d="M123.36 81.11H30.74C29.05 81.11 27.68 82.48 27.68 84.17V237.2C27.68 238.89 29.05 240.26 30.74 240.26H123.36C125.05 240.26 126.42 238.89 126.42 237.2V84.17C126.42 82.48 125.05 81.11 123.36 81.11Z" fill="white"/>
<path d="M31.29 81.11H122.95C124.87 81.11 126.42 82.67 126.42 84.58V98.89H27.68V84.71C27.68 82.72 29.3 81.1 31.29 81.1V81.11Z" fill="#F13C2F"/>
<path d="M123.11 240.26C123.11 240.26 123.58 240.3 124.38 239.98C124.78 239.81 125.24 239.51 125.64 239.02C126.03 238.52 126.36 237.82 126.36 236.97C126.35 233.56 126.33 228.56 126.31 222.11C126.29 209.19 126.26 190.52 126.23 167.45C126.21 144.37 126.2 116.89 126.17 86.3899V84.9599C126.17 84.4699 126.17 84.0299 126.05 83.5999C125.82 82.7399 125.17 81.9999 124.36 81.6399C123.95 81.4499 123.51 81.36 123.05 81.37H121.6C120.63 81.37 119.66 81.37 118.68 81.37C114.77 81.37 110.82 81.37 106.83 81.37C98.84 81.37 90.69 81.37 82.39 81.37C65.79 81.37 48.6 81.37 31 81.37C29.98 81.37 28.99 81.8999 28.43 82.7499C28.16 83.1799 27.98 83.6599 27.94 84.1699C27.91 84.6799 27.94 85.25 27.93 85.79C27.93 87.98 27.93 90.16 27.93 92.33C27.93 96.68 27.93 101 27.93 105.28C27.93 113.86 27.93 122.3 27.93 130.61C27.93 147.21 27.92 163.23 27.91 178.49C27.91 193.75 27.89 208.25 27.89 221.81C27.89 225.2 27.89 228.54 27.89 231.81C27.89 233.45 27.89 235.07 27.89 236.67C27.76 238.23 28.88 239.68 30.35 239.98C31.06 240.11 31.89 240.03 32.65 240.05C33.43 240.05 34.2 240.05 34.98 240.05C36.52 240.05 38.05 240.05 39.56 240.05C42.58 240.05 45.53 240.05 48.42 240.05C71.49 240.09 90.16 240.11 103.08 240.13C109.53 240.15 114.53 240.17 117.94 240.18C119.63 240.19 120.92 240.2 121.8 240.21C122.67 240.21 123.12 240.24 123.12 240.24C123.12 240.24 122.67 240.26 121.8 240.27C120.92 240.27 119.63 240.28 117.94 240.3C114.53 240.31 109.53 240.33 103.08 240.35C90.17 240.37 71.5 240.4 48.42 240.43C45.54 240.43 42.58 240.43 39.56 240.43C38.05 240.43 36.52 240.43 34.98 240.43C34.21 240.43 33.43 240.43 32.65 240.43C31.86 240.4 31.11 240.5 30.26 240.35C29.44 240.18 28.69 239.7 28.18 239.02C27.67 238.36 27.42 237.47 27.47 236.65C27.47 235.04 27.47 233.42 27.47 231.79C27.47 228.52 27.47 225.18 27.47 221.79C27.47 208.22 27.45 193.72 27.45 178.47C27.45 163.21 27.45 147.2 27.43 130.59C27.43 122.29 27.43 113.84 27.43 105.26C27.43 100.97 27.43 96.6499 27.43 92.3099C27.43 90.1399 27.43 87.9599 27.43 85.7699C27.43 85.2099 27.42 84.6999 27.44 84.11C27.48 83.52 27.69 82.9499 28.01 82.4499C28.65 81.4499 29.82 80.82 31.01 80.83C48.61 80.83 65.8 80.83 82.4 80.83C90.7 80.83 98.85 80.83 106.84 80.83C110.83 80.83 114.78 80.83 118.69 80.83C119.67 80.83 120.64 80.83 121.61 80.83H123.06C123.57 80.83 124.1 80.93 124.57 81.15C125.51 81.58 126.26 82.4299 126.52 83.4199C126.67 83.9199 126.66 84.45 126.65 84.91V86.3399C126.63 116.85 126.61 144.33 126.59 167.4C126.56 190.47 126.53 209.14 126.51 222.06C126.49 228.51 126.47 233.51 126.46 236.92C126.46 237.79 126.1 238.51 125.7 239.02C125.28 239.52 124.8 239.82 124.39 239.98C123.98 240.15 123.65 240.18 123.43 240.21C123.21 240.21 123.1 240.21 123.1 240.21L123.11 240.26Z" fill="#263238"/>
<path d="M42.23 91.39C42.23 93 40.93 94.3 39.32 94.3C37.71 94.3 36.41 93 36.41 91.39C36.41 89.78 37.71 88.48 39.32 88.48C40.93 88.48 42.23 89.78 42.23 91.39Z" fill="white"/>
<path d="M48.28 94.3C49.8871 94.3 51.19 92.9971 51.19 91.39C51.19 89.7828 49.8871 88.48 48.28 88.48C46.6728 88.48 45.37 89.7828 45.37 91.39C45.37 92.9971 46.6728 94.3 48.28 94.3Z" fill="white"/>
<path d="M57.25 94.3C58.8571 94.3 60.16 92.9971 60.16 91.39C60.16 89.7828 58.8571 88.48 57.25 88.48C55.6428 88.48 54.34 89.7828 54.34 91.39C54.34 92.9971 55.6428 94.3 57.25 94.3Z" fill="white"/>
<path d="M70.65 123.01H52.47C51.38 123.01 50.5 122.13 50.5 121.04C50.5 119.95 51.38 119.07 52.47 119.07H70.65C71.74 119.07 72.62 119.95 72.62 121.04C72.62 122.13 71.74 123.01 70.65 123.01Z" fill="#263238"/>
<path d="M70.65 133.34H52.47C51.38 133.34 50.5 132.46 50.5 131.37C50.5 130.28 51.38 129.4 52.47 129.4H70.65C71.74 129.4 72.62 130.28 72.62 131.37C72.62 132.46 71.74 133.34 70.65 133.34Z" fill="#E0E0E0"/>
<path d="M71.17 161.62H52.99C51.9 161.62 51.02 160.74 51.02 159.65C51.02 158.56 51.9 157.68 52.99 157.68H71.17C72.26 157.68 73.14 158.56 73.14 159.65C73.14 160.74 72.26 161.62 71.17 161.62Z" fill="#E0E0E0"/>
<path d="M70.65 144.01H52.47C51.38 144.01 50.5 143.13 50.5 142.04C50.5 140.95 51.38 140.07 52.47 140.07H70.65C71.74 140.07 72.62 140.95 72.62 142.04C72.62 143.13 71.74 144.01 70.65 144.01Z" fill="#FF725E"/>
<path d="M70.65 203.52H52.47C51.38 203.52 50.5 202.64 50.5 201.55C50.5 200.46 51.38 199.58 52.47 199.58H70.65C71.74 199.58 72.62 200.46 72.62 201.55C72.62 202.64 71.74 203.52 70.65 203.52Z" fill="#FF725E"/>
<path d="M99.78 123.01H81.6C80.51 123.01 79.63 122.13 79.63 121.04C79.63 119.95 80.51 119.07 81.6 119.07H99.78C100.87 119.07 101.75 119.95 101.75 121.04C101.75 122.13 100.87 123.01 99.78 123.01Z" fill="#455A64"/>
<path d="M119.47 133.34H81.43C80.43 133.34 79.63 132.46 79.63 131.37C79.63 130.28 80.44 129.4 81.43 129.4H119.47C120.47 129.4 121.27 130.28 121.27 131.37C121.27 132.46 120.46 133.34 119.47 133.34Z" fill="#263238"/>
<path d="M118.44 144.01H80.14C79.12 144.01 78.29 143.13 78.29 142.04C78.29 140.95 79.12 140.07 80.14 140.07H118.44C119.46 140.07 120.29 140.95 120.29 142.04C120.29 143.13 119.46 144.01 118.44 144.01Z" fill="#E0E0E0"/>
<path d="M90.77 152.64H52.47C51.45 152.64 50.62 151.76 50.62 150.67C50.62 149.58 51.45 148.7 52.47 148.7H90.77C91.79 148.7 92.62 149.58 92.62 150.67C92.62 151.76 91.79 152.64 90.77 152.64Z" fill="#E0E0E0"/>
<path d="M43.55 121.04C43.55 122.15 42.65 123.04 41.55 123.04C40.45 123.04 39.55 122.14 39.55 121.04C39.55 119.94 40.45 119.04 41.55 119.04C42.65 119.04 43.55 119.94 43.55 121.04Z" fill="#455A64"/>
<path d="M43.55 111.15C43.55 112.26 42.65 113.15 41.55 113.15C40.45 113.15 39.55 112.25 39.55 111.15C39.55 110.05 40.45 109.15 41.55 109.15C42.65 109.15 43.55 110.05 43.55 111.15Z" fill="#455A64"/>
<path d="M43.55 131.33C43.55 132.44 42.65 133.33 41.55 133.33C40.45 133.33 39.55 132.43 39.55 131.33C39.55 130.23 40.45 129.33 41.55 129.33C42.65 129.33 43.55 130.23 43.55 131.33Z" fill="#455A64"/>
<path d="M43.55 142.04C43.55 143.15 42.65 144.04 41.55 144.04C40.45 144.04 39.55 143.14 39.55 142.04C39.55 140.94 40.45 140.04 41.55 140.04C42.65 140.04 43.55 140.94 43.55 142.04Z" fill="#455A64"/>
<path d="M71.17 190.51H52.99C51.9 190.51 51.02 189.63 51.02 188.54C51.02 187.45 51.9 186.57 52.99 186.57H71.17C72.26 186.57 73.14 187.45 73.14 188.54C73.14 189.63 72.26 190.51 71.17 190.51Z" fill="#E0E0E0"/>
<path d="M70.65 172.89H52.47C51.38 172.89 50.5 172.01 50.5 170.92C50.5 169.83 51.38 168.95 52.47 168.95H70.65C71.74 168.95 72.62 169.83 72.62 170.92C72.62 172.01 71.74 172.89 70.65 172.89Z" fill="#FF725E"/>
<path d="M118.44 172.89H80.14C79.12 172.89 78.29 172.01 78.29 170.92C78.29 169.83 79.12 168.95 80.14 168.95H118.44C119.46 168.95 120.29 169.83 120.29 170.92C120.29 172.01 119.46 172.89 118.44 172.89Z" fill="#E0E0E0"/>
<path d="M90.77 181.52H52.47C51.45 181.52 50.62 180.64 50.62 179.55C50.62 178.46 51.45 177.58 52.47 177.58H90.77C91.79 177.58 92.62 178.46 92.62 179.55C92.62 180.64 91.79 181.52 90.77 181.52Z" fill="#E0E0E0"/>
<path d="M43.55 170.92C43.55 172.03 42.65 172.92 41.55 172.92C40.45 172.92 39.55 172.02 39.55 170.92C39.55 169.82 40.45 168.92 41.55 168.92C42.65 168.92 43.55 169.82 43.55 170.92Z" fill="#455A64"/>
<path d="M62.94 109.73H51.56C51.0298 109.73 50.6 110.16 50.6 110.69V112.58C50.6 113.11 51.0298 113.54 51.56 113.54H62.94C63.4702 113.54 63.9 113.11 63.9 112.58V110.69C63.9 110.16 63.4702 109.73 62.94 109.73Z" fill="#455A64"/>
<path d="M70.65 214.04H52.47C51.38 214.04 50.5 213.16 50.5 212.07C50.5 210.98 51.38 210.1 52.47 210.1H70.65C71.74 210.1 72.62 210.98 72.62 212.07C72.62 213.16 71.74 214.04 70.65 214.04Z" fill="#263238"/>
<path d="M99.78 214.04H81.6C80.51 214.04 79.63 213.16 79.63 212.07C79.63 210.98 80.51 210.1 81.6 210.1H99.78C100.87 210.1 101.75 210.98 101.75 212.07C101.75 213.16 100.87 214.04 99.78 214.04Z" fill="#455A64"/>
<path d="M43.55 212.06C43.55 213.17 42.65 214.06 41.55 214.06C40.45 214.06 39.55 213.16 39.55 212.06C39.55 210.96 40.45 210.06 41.55 210.06C42.65 210.06 43.55 210.96 43.55 212.06Z" fill="#455A64"/>
<path d="M43.55 221.57C43.55 222.68 42.65 223.57 41.55 223.57C40.45 223.57 39.55 222.67 39.55 221.57C39.55 220.47 40.45 219.57 41.55 219.57C42.65 219.57 43.55 220.47 43.55 221.57Z" fill="#455A64"/>
<path d="M62.94 220.14H51.56C51.0298 220.14 50.6 220.57 50.6 221.1V222.99C50.6 223.52 51.0298 223.95 51.56 223.95H62.94C63.4702 223.95 63.9 223.52 63.9 222.99V221.1C63.9 220.57 63.4702 220.14 62.94 220.14Z" fill="#455A64"/>
<path d="M313.36 215.7H133.01V330.42H313.36V215.7Z" fill="white"/>
<path d="M165.49 215.7H133.01V330.42H165.49V215.7Z" fill="#EBEBEB"/>
<path d="M147.29 228.08C147.46 227.98 147.64 227.9 147.83 227.84L147.94 227.3L148.84 227.28L148.97 227.81C149.16 227.86 149.34 227.93 149.52 228.03L149.98 227.73L150.63 228.36L150.35 228.83C150.45 229 150.53 229.18 150.58 229.37L151.12 229.48L151.14 230.38L150.61 230.51C150.56 230.7 150.49 230.88 150.39 231.06L150.69 231.52L150.06 232.17L149.59 231.89C149.42 231.99 149.24 232.07 149.05 232.12L148.94 232.66L148.04 232.68L147.91 232.15C147.72 232.1 147.54 232.03 147.36 231.93L146.9 232.23L146.25 231.6L146.53 231.13C146.43 230.96 146.35 230.78 146.29 230.59L145.75 230.48L145.73 229.58L146.26 229.45C146.31 229.26 146.38 229.08 146.48 228.9L146.18 228.44L146.81 227.79L147.28 228.07L147.29 228.08ZM147.77 229.28C147.4 229.67 147.41 230.28 147.79 230.65C148.18 231.02 148.79 231.01 149.16 230.63C149.53 230.24 149.52 229.63 149.14 229.26C148.75 228.89 148.14 228.9 147.77 229.28Z" fill="#E0E0E0"/>
<path d="M154.79 253.42H140.63C139.83 253.42 139.17 252.77 139.17 251.96C139.17 251.16 139.82 250.5 140.63 250.5H154.79C155.59 250.5 156.25 251.15 156.25 251.96C156.25 252.76 155.6 253.42 154.79 253.42Z" fill="#E0E0E0"/>
<path d="M154.79 246.01H140.63C139.83 246.01 139.17 245.36 139.17 244.55C139.17 243.75 139.82 243.09 140.63 243.09H154.79C155.59 243.09 156.25 243.74 156.25 244.55C156.25 245.35 155.6 246.01 154.79 246.01Z" fill="#E0E0E0"/>
<path d="M154.79 239.23H140.63C139.83 239.23 139.17 238.58 139.17 237.77C139.17 236.97 139.82 236.31 140.63 236.31H154.79C155.59 236.31 156.25 236.96 156.25 237.77C156.25 238.57 155.6 239.23 154.79 239.23Z" fill="#E0E0E0"/>
<path d="M192.84 232.65H179.43C178.63 232.65 177.97 232 177.97 231.19C177.97 230.39 178.62 229.73 179.43 229.73H192.84C193.64 229.73 194.3 230.38 194.3 231.19C194.3 231.99 193.65 232.65 192.84 232.65Z" fill="#263238"/>
<path d="M192.84 240.26H179.43C178.63 240.26 177.97 239.61 177.97 238.8C177.97 238 178.62 237.34 179.43 237.34H192.84C193.64 237.34 194.3 237.99 194.3 238.8C194.3 239.6 193.65 240.26 192.84 240.26Z" fill="#E0E0E0"/>
<path d="M192.84 248.14H179.43C178.63 248.14 177.97 247.49 177.97 246.68C177.97 245.88 178.62 245.22 179.43 245.22H192.84C193.64 245.22 194.3 245.87 194.3 246.68C194.3 247.48 193.65 248.14 192.84 248.14Z" fill="#FF725E"/>
<path d="M187.11 263.36H179.42C178.62 263.36 177.96 262.71 177.96 261.9C177.96 261.1 178.61 260.44 179.42 260.44H187.11C187.91 260.44 188.57 261.09 188.57 261.9C188.57 262.7 187.92 263.36 187.11 263.36Z" fill="#263238"/>
<path d="M187.11 271.24H179.42C178.62 271.24 177.96 270.59 177.96 269.78C177.96 268.98 178.61 268.32 179.42 268.32H187.11C187.91 268.32 188.57 268.97 188.57 269.78C188.57 270.58 187.92 271.24 187.11 271.24Z" fill="#263238"/>
<path d="M209.97 271.24H195.87C195.07 271.24 194.41 270.59 194.41 269.78C194.41 268.98 195.06 268.32 195.87 268.32H209.97C210.77 268.32 211.43 268.97 211.43 269.78C211.43 270.58 210.78 271.24 209.97 271.24Z" fill="#E0E0E0"/>
<path d="M201.99 278.26H187.89C187.09 278.26 186.43 277.61 186.43 276.8C186.43 276 187.08 275.34 187.89 275.34H201.99C202.79 275.34 203.45 275.99 203.45 276.8C203.45 277.6 202.8 278.26 201.99 278.26Z" fill="#FF725E"/>
<path d="M195.43 283.35H205.12C205.67 283.35 206.11 283.8 206.11 284.34V285.26C206.11 285.81 205.66 286.25 205.12 286.25H195.43C194.88 286.25 194.44 285.8 194.44 285.26V284.34C194.44 283.79 194.89 283.35 195.43 283.35Z" fill="#FF725E"/>
<path d="M204.66 301.94H195.9C195.1 301.94 194.44 301.29 194.44 300.48C194.44 299.68 195.09 299.02 195.9 299.02H204.66C205.46 299.02 206.12 299.67 206.12 300.48C206.12 301.28 205.47 301.94 204.66 301.94Z" fill="#FF725E"/>
<path d="M204.66 318.51H195.9C195.1 318.51 194.44 317.86 194.44 317.05C194.44 316.25 195.09 315.59 195.9 315.59H204.66C205.46 315.59 206.12 316.24 206.12 317.05C206.12 317.85 205.47 318.51 204.66 318.51Z" fill="#FF725E"/>
<path d="M226.2 318.51H210.84C210.04 318.51 209.39 317.86 209.39 317.05C209.39 316.25 210.04 315.59 210.84 315.59H226.2C227 315.59 227.65 316.24 227.65 317.05C227.65 317.85 227 318.51 226.2 318.51Z" fill="#455A64"/>
<path d="M236.95 318.51H234.74C233.94 318.51 233.28 317.86 233.28 317.05C233.28 316.25 233.93 315.59 234.74 315.59H236.95C237.75 315.59 238.41 316.24 238.41 317.05C238.41 317.85 237.76 318.51 236.95 318.51Z" fill="#E0E0E0"/>
<path d="M225.28 301.94H212.3C211.5 301.94 210.84 301.29 210.84 300.48C210.84 299.68 211.49 299.02 212.3 299.02H225.28C226.08 299.02 226.74 299.67 226.74 300.48C226.74 301.28 226.09 301.94 225.28 301.94Z" fill="#E0E0E0"/>
<path d="M253.74 309.21H212.29C211.49 309.21 210.83 308.56 210.83 307.75C210.83 306.95 211.48 306.29 212.29 306.29H253.74C254.54 306.29 255.19 306.94 255.19 307.75C255.19 308.55 254.54 309.21 253.74 309.21Z" fill="#E0E0E0"/>
<path d="M258.53 301.94H232.07C231.27 301.94 230.61 301.29 230.61 300.48C230.61 299.68 231.26 299.02 232.07 299.02H258.53C259.33 299.02 259.99 299.67 259.99 300.48C259.99 301.28 259.34 301.94 258.53 301.94Z" fill="#455A64"/>
<path d="M210.92 283.35H222.81C223.36 283.35 223.8 283.8 223.8 284.34V285.26C223.8 285.81 223.35 286.25 222.81 286.25H210.92C210.37 286.25 209.93 285.8 209.93 285.26V284.34C209.93 283.79 210.38 283.35 210.92 283.35Z" fill="#455A64"/>
<path d="M232.29 283.35H228.64C228.093 283.35 227.65 283.793 227.65 284.34V285.27C227.65 285.817 228.093 286.26 228.64 286.26H232.29C232.837 286.26 233.28 285.817 233.28 285.27V284.34C233.28 283.793 232.837 283.35 232.29 283.35Z" fill="#E0E0E0"/>
<path d="M253.2 283.35H238.56C238.013 283.35 237.57 283.793 237.57 284.34V285.27C237.57 285.817 238.013 286.26 238.56 286.26H253.2C253.747 286.26 254.19 285.817 254.19 285.27V284.34C254.19 283.793 253.747 283.35 253.2 283.35Z" fill="#E0E0E0"/>
<path d="M211.55 278.26H208.41C207.61 278.26 206.95 277.61 206.95 276.8C206.95 276 207.6 275.34 208.41 275.34H211.55C212.35 275.34 213.01 275.99 213.01 276.8C213.01 277.6 212.36 278.26 211.55 278.26Z" fill="#263238"/>
<path d="M238.17 278.26H218.16C217.36 278.26 216.7 277.61 216.7 276.8C216.7 276 217.35 275.34 218.16 275.34H238.17C238.97 275.34 239.63 275.99 239.63 276.8C239.63 277.6 238.98 278.26 238.17 278.26Z" fill="#E0E0E0"/>
<path d="M214.32 232.65H200.91C200.11 232.65 199.45 232 199.45 231.19C199.45 230.39 200.1 229.73 200.91 229.73H214.32C215.12 229.73 215.78 230.38 215.78 231.19C215.78 231.99 215.13 232.65 214.32 232.65Z" fill="#455A64"/>
<path d="M231.6 240.26H200.91C200.11 240.26 199.45 239.61 199.45 238.8C199.45 238 200.1 237.34 200.91 237.34H231.6C232.4 237.34 233.06 237.99 233.06 238.8C233.06 239.6 232.41 240.26 231.6 240.26Z" fill="#263238"/>
<path d="M264.65 248.14H200.91C200.11 248.14 199.45 247.49 199.45 246.68C199.45 245.88 200.1 245.22 200.91 245.22H264.65C265.45 245.22 266.11 245.87 266.11 246.68C266.11 247.48 265.46 248.14 264.65 248.14Z" fill="#E0E0E0"/>
<path d="M230.96 253.68H200.91C200.11 253.68 199.45 253.03 199.45 252.22C199.45 251.42 200.1 250.76 200.91 250.76H230.96C231.76 250.76 232.42 251.41 232.42 252.22C232.42 253.02 231.77 253.68 230.96 253.68Z" fill="#E0E0E0"/>
<path d="M224.82 263.36H194.77C193.97 263.36 193.31 262.71 193.31 261.9C193.31 261.1 193.96 260.44 194.77 260.44H224.82C225.62 260.44 226.28 261.09 226.28 261.9C226.28 262.7 225.63 263.36 224.82 263.36Z" fill="#455A64"/>
<path d="M241.64 263.36H231.57C230.77 263.36 230.11 262.71 230.11 261.9C230.11 261.1 230.76 260.44 231.57 260.44H241.64C242.44 260.44 243.1 261.09 243.1 261.9C243.1 262.7 242.45 263.36 241.64 263.36Z" fill="#FF725E"/>
<path d="M267.4 263.31H248.37C247.57 263.31 246.91 262.66 246.91 261.85C246.91 261.05 247.56 260.39 248.37 260.39H267.4C268.2 260.39 268.86 261.04 268.86 261.85C268.86 262.65 268.21 263.31 267.4 263.31Z" fill="#263238"/>
<path d="M293.29 263.31H274.26C273.46 263.31 272.8 262.66 272.8 261.85C272.8 261.05 273.45 260.39 274.26 260.39H293.29C294.09 260.39 294.75 261.04 294.75 261.85C294.75 262.65 294.1 263.31 293.29 263.31Z" fill="#E0E0E0"/>
<path d="M148.66 261.27H140.63C139.83 261.27 139.17 260.62 139.17 259.81C139.17 259.01 139.82 258.35 140.63 258.35H148.66C149.46 258.35 150.12 259 150.12 259.81C150.12 260.61 149.47 261.27 148.66 261.27Z" fill="#E0E0E0"/>
<path d="M146.26 284.81H140.64C139.84 284.81 139.18 284.16 139.18 283.35C139.18 282.55 139.83 281.89 140.64 281.89H146.26C147.06 281.89 147.72 282.54 147.72 283.35C147.72 284.15 147.07 284.81 146.26 284.81Z" fill="#E0E0E0"/>
<path d="M156.25 269.12H140.64C139.84 269.12 139.18 268.47 139.18 267.66C139.18 266.86 139.83 266.2 140.64 266.2H156.25C157.05 266.2 157.71 266.85 157.71 267.66C157.71 268.46 157.06 269.12 156.25 269.12Z" fill="#E0E0E0"/>
<path d="M153.51 276.97H140.64C139.84 276.97 139.18 276.32 139.18 275.51C139.18 274.71 139.83 274.05 140.64 274.05H153.51C154.31 274.05 154.97 274.7 154.97 275.51C154.97 276.31 154.32 276.97 153.51 276.97Z" fill="#E0E0E0"/>
<path d="M172.85 231.19C172.85 232.01 172.19 232.67 171.37 232.67C170.55 232.67 169.89 232.01 169.89 231.19C169.89 230.37 170.55 229.71 171.37 229.71C172.19 229.71 172.85 230.37 172.85 231.19Z" fill="#455A64"/>
<path d="M171.37 224.91C172.187 224.91 172.85 224.247 172.85 223.43C172.85 222.613 172.187 221.95 171.37 221.95C170.553 221.95 169.89 222.613 169.89 223.43C169.89 224.247 170.553 224.91 171.37 224.91Z" fill="#455A64"/>
<path d="M171.37 240.27C172.187 240.27 172.85 239.607 172.85 238.79C172.85 237.973 172.187 237.31 171.37 237.31C170.553 237.31 169.89 237.973 169.89 238.79C169.89 239.607 170.553 240.27 171.37 240.27Z" fill="#455A64"/>
<path d="M171.37 248.16C172.187 248.16 172.85 247.497 172.85 246.68C172.85 245.863 172.187 245.2 171.37 245.2C170.553 245.2 169.89 245.863 169.89 246.68C169.89 247.497 170.553 248.16 171.37 248.16Z" fill="#455A64"/>
<path d="M171.37 256.06C172.187 256.06 172.85 255.397 172.85 254.58C172.85 253.763 172.187 253.1 171.37 253.1C170.553 253.1 169.89 253.763 169.89 254.58C169.89 255.397 170.553 256.06 171.37 256.06Z" fill="#455A64"/>
<path d="M172.85 262.47C172.85 263.29 172.19 263.95 171.37 263.95C170.55 263.95 169.89 263.29 169.89 262.47C169.89 261.65 170.55 260.99 171.37 260.99C172.19 260.99 172.85 261.65 172.85 262.47Z" fill="#455A64"/>
<path d="M171.37 271.84C172.187 271.84 172.85 271.177 172.85 270.36C172.85 269.542 172.187 268.88 171.37 268.88C170.553 268.88 169.89 269.542 169.89 270.36C169.89 271.177 170.553 271.84 171.37 271.84Z" fill="#455A64"/>
<path d="M171.37 279.74C172.187 279.74 172.85 279.077 172.85 278.26C172.85 277.443 172.187 276.78 171.37 276.78C170.553 276.78 169.89 277.443 169.89 278.26C169.89 279.077 170.553 279.74 171.37 279.74Z" fill="#455A64"/>
<path d="M172.85 286.15C172.85 286.97 172.19 287.63 171.37 287.63C170.55 287.63 169.89 286.97 169.89 286.15C169.89 285.33 170.55 284.67 171.37 284.67C172.19 284.67 172.85 285.33 172.85 286.15Z" fill="#455A64"/>
<path d="M172.85 294.05C172.85 294.87 172.19 295.53 171.37 295.53C170.55 295.53 169.89 294.87 169.89 294.05C169.89 293.23 170.55 292.57 171.37 292.57C172.19 292.57 172.85 293.23 172.85 294.05Z" fill="#455A64"/>
<path d="M171.37 303.42C172.187 303.42 172.85 302.757 172.85 301.94C172.85 301.123 172.187 300.46 171.37 300.46C170.553 300.46 169.89 301.123 169.89 301.94C169.89 302.757 170.553 303.42 171.37 303.42Z" fill="#455A64"/>
<path d="M172.85 309.84C172.85 310.66 172.19 311.32 171.37 311.32C170.55 311.32 169.89 310.66 169.89 309.84C169.89 309.02 170.55 308.36 171.37 308.36C172.19 308.36 172.85 309.02 172.85 309.84Z" fill="#455A64"/>
<path d="M171.37 319.21C172.187 319.21 172.85 318.547 172.85 317.73C172.85 316.913 172.187 316.25 171.37 316.25C170.553 316.25 169.89 316.913 169.89 317.73C169.89 318.547 170.553 319.21 171.37 319.21Z" fill="#455A64"/>
<path d="M138.41 200.06H309.52C311.64 200.06 313.35 201.78 313.35 203.89V215.7H133V205.46C133 202.48 135.42 200.06 138.4 200.06H138.41Z" fill="#F13C2F"/>
<path d="M142.33 210.5C143.517 210.5 144.48 209.537 144.48 208.35C144.48 207.163 143.517 206.2 142.33 206.2C141.143 206.2 140.18 207.163 140.18 208.35C140.18 209.537 141.143 210.5 142.33 210.5Z" fill="white"/>
<path d="M151.09 208.35C151.09 209.54 150.13 210.5 148.94 210.5C147.75 210.5 146.79 209.54 146.79 208.35C146.79 207.16 147.75 206.2 148.94 206.2C150.13 206.2 151.09 207.16 151.09 208.35Z" fill="white"/>
<path d="M157.7 208.35C157.7 209.54 156.74 210.5 155.55 210.5C154.36 210.5 153.4 209.54 153.4 208.35C153.4 207.16 154.36 206.2 155.55 206.2C156.74 206.2 157.7 207.16 157.7 208.35Z" fill="white"/>
<path d="M171.37 328.63L186.61 345.11L200.45 328.63H171.37Z" fill="white"/>
<path d="M308.47 330.42C308.47 330.42 309.04 330.47 310.05 330.13C310.55 329.96 311.15 329.65 311.73 329.12C312.31 328.6 312.86 327.82 313.13 326.82C313.28 326.32 313.31 325.78 313.3 325.19C313.3 324.61 313.3 323.99 313.3 323.35C313.3 322.06 313.3 320.66 313.29 319.13C313.29 316.08 313.28 312.56 313.27 308.6C313.25 292.75 313.22 269.83 313.19 241.5C313.19 234.42 313.18 227 313.17 219.27C313.17 215.4 313.17 211.46 313.17 207.44C313.16 206.45 313.2 205.4 313.14 204.44C313.03 203.48 312.63 202.54 311.96 201.82C311.31 201.08 310.41 200.58 309.45 200.37C308.5 200.2 307.42 200.3 306.39 200.27C289.73 200.27 271.94 200.29 253.21 200.29C234.48 200.29 214.82 200.29 194.45 200.31C184.26 200.31 173.89 200.31 163.37 200.31C158.11 200.31 152.81 200.31 147.47 200.31C144.8 200.31 142.13 200.31 139.44 200.31C138.78 200.32 138.07 200.29 137.45 200.33C136.82 200.39 136.2 200.59 135.64 200.91C134.53 201.54 133.7 202.64 133.41 203.89C133.2 204.74 133.31 205.71 133.29 206.64V209.46C133.29 211.34 133.29 213.21 133.29 215.08C133.29 218.82 133.29 222.54 133.29 226.24C133.29 233.64 133.29 240.98 133.29 248.23C133.29 262.73 133.29 276.9 133.29 290.67C133.29 297.55 133.29 304.34 133.29 311.01C133.29 314.35 133.29 317.65 133.29 320.93C133.29 322.56 133.27 324.22 133.3 325.81C133.37 327.36 134.3 328.81 135.64 329.57C136.3 329.96 137.06 330.15 137.82 330.18C138.62 330.18 139.42 330.18 140.21 330.18C141.8 330.18 143.39 330.18 144.97 330.18C148.13 330.18 151.25 330.18 154.35 330.18C160.54 330.18 166.59 330.18 172.51 330.18H172.61L172.68 330.25C177.48 335.3 182.13 340.2 186.64 344.95H186.33C190.61 339.87 194.72 334.99 198.67 330.28L198.73 330.21H198.82C232.58 330.25 260 330.28 278.99 330.3C288.48 330.32 295.86 330.34 300.87 330.35C303.37 330.36 305.28 330.37 306.57 330.38C307.86 330.38 308.51 330.41 308.51 330.41C308.51 330.41 307.85 330.43 306.57 330.44C305.28 330.44 303.37 330.46 300.87 330.47C295.85 330.48 288.47 330.5 278.99 330.52C260 330.54 232.58 330.57 198.82 330.61L198.97 330.54C195.02 335.25 190.92 340.14 186.64 345.24L186.49 345.42L186.33 345.25C181.81 340.51 177.16 335.61 172.35 330.57L172.51 330.64C166.6 330.64 160.54 330.64 154.35 330.64C151.26 330.64 148.13 330.64 144.97 330.64C143.39 330.64 141.8 330.64 140.21 330.64C139.41 330.64 138.61 330.64 137.81 330.64C136.97 330.61 136.13 330.4 135.4 329.97C133.93 329.14 132.9 327.54 132.82 325.83C132.79 324.18 132.82 322.57 132.8 320.92C132.8 317.64 132.8 314.33 132.8 311C132.8 304.33 132.8 297.55 132.8 290.66C132.8 276.89 132.8 262.72 132.8 248.22C132.8 240.97 132.8 233.64 132.8 226.23C132.8 222.53 132.8 218.81 132.8 215.07C132.8 213.2 132.8 211.33 132.8 209.45V205.22C132.8 204.76 132.82 204.24 132.94 203.76C133.26 202.37 134.18 201.14 135.42 200.45C136.04 200.1 136.73 199.88 137.43 199.81C138.15 199.76 138.79 199.8 139.47 199.78C142.15 199.78 144.83 199.78 147.5 199.78C152.84 199.78 158.14 199.78 163.4 199.78C173.92 199.78 184.29 199.78 194.48 199.78C214.86 199.78 234.52 199.79 253.24 199.8C271.97 199.8 289.76 199.82 306.42 199.82C307.46 199.85 308.48 199.74 309.57 199.93C310.62 200.16 311.6 200.71 312.31 201.52C313.03 202.31 313.47 203.33 313.59 204.38C313.65 205.44 313.61 206.41 313.62 207.43C313.62 211.45 313.62 215.39 313.62 219.26C313.62 226.99 313.61 234.41 313.6 241.49C313.57 269.81 313.54 292.74 313.52 308.59C313.52 312.55 313.5 316.07 313.5 319.12C313.5 320.64 313.5 322.05 313.49 323.34C313.49 323.98 313.49 324.6 313.49 325.18C313.49 325.76 313.46 326.33 313.3 326.83C313.01 327.85 312.45 328.63 311.85 329.16C311.26 329.7 310.64 330 310.13 330.16C309.62 330.33 309.21 330.38 308.94 330.4C308.67 330.4 308.53 330.4 308.53 330.4L308.47 330.42Z" fill="#263238"/>
<path d="M147.17 101.24H283.42C285.17 101.24 286.59 102.66 286.59 104.41V172.94C286.59 175.03 284.89 176.73 282.8 176.73H147.17C145.42 176.73 144 175.31 144 173.56V104.41C144 102.66 145.42 101.24 147.17 101.24Z" fill="white"/>
<path d="M147.48 101.24H283.12C285.04 101.24 286.59 102.8 286.59 104.71V117.45H144.01V104.71C144.01 102.79 145.57 101.24 147.48 101.24Z" fill="#F13C2F"/>
<path d="M282.58 176.72C282.58 176.72 282.96 176.73 283.67 176.54C284.35 176.34 285.42 175.81 286.09 174.54C286.43 173.91 286.58 173.12 286.53 172.24C286.53 171.36 286.53 170.39 286.52 169.34C286.52 167.25 286.51 164.83 286.5 162.11C286.48 151.22 286.45 135.49 286.42 116.05C286.42 113.62 286.42 111.13 286.42 108.59C286.42 107.32 286.42 106.03 286.42 104.73C286.53 103.47 285.84 102.23 284.69 101.7C284.12 101.42 283.5 101.41 282.82 101.42C282.15 101.42 281.48 101.42 280.8 101.42C279.45 101.42 278.08 101.42 276.7 101.42C273.94 101.42 271.13 101.42 268.27 101.42C256.84 101.42 244.62 101.44 231.77 101.44C206.06 101.44 177.8 101.45 148.13 101.46C147.65 101.46 147.22 101.45 146.81 101.55C146.39 101.65 146 101.83 145.65 102.08C144.95 102.58 144.47 103.36 144.34 104.21C144.27 104.62 144.3 105.09 144.29 105.55V109.68C144.29 113.34 144.29 116.98 144.29 120.6C144.29 127.83 144.29 134.95 144.29 141.94C144.29 148.94 144.29 155.81 144.29 162.54C144.29 165.9 144.29 169.23 144.29 172.53C144.22 174.1 145.2 175.62 146.64 176.17C147.35 176.48 148.12 176.45 148.94 176.45C149.75 176.45 150.55 176.45 151.36 176.45C177.07 176.47 200.22 176.49 219.67 176.51C239.11 176.54 254.84 176.57 265.72 176.59C271.15 176.61 275.37 176.63 278.24 176.64C279.66 176.65 280.75 176.66 281.5 176.67C282.23 176.67 282.61 176.7 282.61 176.7C282.61 176.7 282.23 176.72 281.5 176.73C280.76 176.73 279.67 176.74 278.24 176.76C275.37 176.77 271.15 176.79 265.72 176.81C254.84 176.83 239.1 176.86 219.67 176.89C200.22 176.91 177.07 176.92 151.36 176.95C150.56 176.95 149.75 176.95 148.94 176.95C148.16 176.95 147.26 176.99 146.45 176.64C144.82 176.02 143.71 174.28 143.79 172.55C143.79 169.26 143.79 165.93 143.79 162.56C143.79 155.83 143.79 148.96 143.79 141.96C143.79 134.96 143.79 127.84 143.79 120.62C143.79 117.01 143.79 113.37 143.79 109.7V106.95V105.57C143.79 105.11 143.76 104.65 143.84 104.15C143.99 103.17 144.55 102.26 145.36 101.68C145.76 101.39 146.22 101.18 146.71 101.06C147.2 100.94 147.7 100.96 148.15 100.95C177.82 100.95 206.08 100.96 231.79 100.97C244.64 100.97 256.86 100.99 268.29 100.99C271.15 100.99 273.96 100.99 276.72 100.99C278.1 100.99 279.47 100.99 280.82 100.99C281.5 100.99 282.17 100.99 282.84 100.99C283.49 100.97 284.25 100.99 284.88 101.31C286.18 101.89 286.97 103.36 286.84 104.7C286.84 106 286.84 107.29 286.84 108.56C286.84 111.1 286.84 113.59 286.84 116.02C286.81 135.46 286.78 151.19 286.76 162.08C286.76 164.8 286.74 167.21 286.74 169.31C286.74 170.36 286.74 171.32 286.73 172.21C286.73 172.65 286.73 173.08 286.64 173.48C286.55 173.88 286.42 174.24 286.25 174.56C285.54 175.85 284.45 176.37 283.75 176.56C283.03 176.74 282.65 176.69 282.65 176.69L282.58 176.72Z" fill="#263238"/>
<path d="M154.62 113.27C156.089 113.27 157.28 112.079 157.28 110.61C157.28 109.141 156.089 107.95 154.62 107.95C153.151 107.95 151.96 109.141 151.96 110.61C151.96 112.079 153.151 113.27 154.62 113.27Z" fill="white"/>
<path d="M165.44 110.61C165.44 112.08 164.25 113.27 162.78 113.27C161.31 113.27 160.12 112.08 160.12 110.61C160.12 109.14 161.31 107.95 162.78 107.95C164.25 107.95 165.44 109.14 165.44 110.61Z" fill="white"/>
<path d="M170.96 113.27C172.429 113.27 173.62 112.079 173.62 110.61C173.62 109.141 172.429 107.95 170.96 107.95C169.491 107.95 168.3 109.141 168.3 110.61C168.3 112.079 169.491 113.27 170.96 113.27Z" fill="white"/>
<path d="M185.09 140.29H168.51C167.52 140.29 166.71 139.48 166.71 138.49C166.71 137.5 167.52 136.69 168.51 136.69H185.09C186.08 136.69 186.89 137.5 186.89 138.49C186.89 139.48 186.08 140.29 185.09 140.29Z" fill="#263238"/>
<path d="M185.09 149.7H168.51C167.52 149.7 166.71 148.89 166.71 147.9C166.71 146.91 167.52 146.1 168.51 146.1H185.09C186.08 146.1 186.89 146.91 186.89 147.9C186.89 148.89 186.08 149.7 185.09 149.7Z" fill="#E0E0E0"/>
<path d="M272.59 140.29H224.51C223.52 140.29 222.71 139.48 222.71 138.49C222.71 137.5 223.52 136.69 224.51 136.69H272.59C273.58 136.69 274.39 137.5 274.39 138.49C274.39 139.48 273.58 140.29 272.59 140.29Z" fill="#E0E0E0"/>
<path d="M185.09 159.43H168.51C167.52 159.43 166.71 158.62 166.71 157.63C166.71 156.64 167.52 155.83 168.51 155.83H185.09C186.08 155.83 186.89 156.64 186.89 157.63C186.89 158.62 186.08 159.43 185.09 159.43Z" fill="#FF725E"/>
<path d="M261.12 149.7H244.54C243.55 149.7 242.74 148.89 242.74 147.9C242.74 146.91 243.55 146.1 244.54 146.1H261.12C262.11 146.1 262.92 146.91 262.92 147.9C262.92 148.89 262.11 149.7 261.12 149.7Z" fill="#FF725E"/>
<path d="M211.64 140.29H195.06C194.07 140.29 193.26 139.48 193.26 138.49C193.26 137.5 194.07 136.69 195.06 136.69H211.64C212.63 136.69 213.44 137.5 213.44 138.49C213.44 139.48 212.63 140.29 211.64 140.29Z" fill="#455A64"/>
<path d="M233 149.7H195.07C194.08 149.7 193.27 148.89 193.27 147.9C193.27 146.91 194.08 146.1 195.07 146.1H233C233.99 146.1 234.8 146.91 234.8 147.9C234.8 148.89 233.99 149.7 233 149.7Z" fill="#263238"/>
<path d="M270.21 159.43H194.99C194.04 159.43 193.27 158.62 193.27 157.63C193.27 156.64 194.04 155.83 194.99 155.83H270.21C271.16 155.83 271.93 156.64 271.93 157.63C271.93 158.62 271.16 159.43 270.21 159.43Z" fill="#E0E0E0"/>
<path d="M232.21 166.28H195.07C194.08 166.28 193.27 165.47 193.27 164.48C193.27 163.49 194.08 162.68 195.07 162.68H232.21C233.2 162.68 234.01 163.49 234.01 164.48C234.01 165.47 233.2 166.28 232.21 166.28Z" fill="#E0E0E0"/>
<path d="M160.39 138.49C160.39 139.5 159.57 140.32 158.56 140.32C157.55 140.32 156.73 139.5 156.73 138.49C156.73 137.48 157.55 136.66 158.56 136.66C159.57 136.66 160.39 137.48 160.39 138.49Z" fill="#455A64"/>
<path d="M160.39 129.48C160.39 130.49 159.57 131.31 158.56 131.31C157.55 131.31 156.73 130.49 156.73 129.48C156.73 128.47 157.55 127.65 158.56 127.65C159.57 127.65 160.39 128.47 160.39 129.48Z" fill="#455A64"/>
<path d="M158.56 149.71C159.571 149.71 160.39 148.891 160.39 147.88C160.39 146.869 159.571 146.05 158.56 146.05C157.549 146.05 156.73 146.869 156.73 147.88C156.73 148.891 157.549 149.71 158.56 149.71Z" fill="#455A64"/>
<path d="M158.56 159.46C159.571 159.46 160.39 158.641 160.39 157.63C160.39 156.619 159.571 155.8 158.56 155.8C157.549 155.8 156.73 156.619 156.73 157.63C156.73 158.641 157.549 159.46 158.56 159.46Z" fill="#455A64"/>
<path d="M178.25 127.32H168.05C167.52 127.32 167.09 127.75 167.09 128.28V129.83C167.09 130.36 167.52 130.79 168.05 130.79H178.25C178.78 130.79 179.21 130.36 179.21 129.83V128.28C179.21 127.75 178.78 127.32 178.25 127.32Z" fill="#455A64"/>
<path d="M74.18 411.76C65.84 415.39 57.8 415.73 50.16 411.76L44.58 365.03H79.23L74.17 411.76H74.18Z" fill="#6F4439"/>
<path d="M76.95 362.31L75.91 358.97L49.81 355.78C49.1 355.69 48.42 356.12 48.19 356.79L46.3 362.3H42.96V368.35C56.07 370.66 68.62 370.8 80.5 368.35V362.3H76.95V362.31Z" fill="#E0E0E0"/>
<path d="M76.95 362.31C76.95 362.31 77.04 362.3 77.19 362.29C77.37 362.29 77.6 362.28 77.88 362.27C78.52 362.26 79.39 362.24 80.49 362.22H80.59V362.32C80.6 363.88 80.62 365.92 80.65 368.37V368.5L80.53 368.53C76.37 369.4 70.85 370.24 64.42 370.37C57.99 370.52 50.68 369.99 43.06 368.66L42.92 368.64L42.7 368.6V368.38C42.7 366.33 42.7 364.3 42.7 362.33V362.07H42.96C44.09 362.07 45.2 362.07 46.3 362.07L46.06 362.24C46.7 360.39 47.32 358.59 47.93 356.84C48.06 356.35 48.45 355.88 48.94 355.69C49.18 355.59 49.45 355.54 49.71 355.55C49.97 355.57 50.17 355.6 50.4 355.63C51.29 355.74 52.17 355.85 53.04 355.96C56.49 356.39 59.71 356.8 62.63 357.17C68.4 357.92 72.99 358.51 75.93 358.9H75.99L76.01 358.97C76.32 360.02 76.55 360.84 76.73 361.45C76.8 361.71 76.86 361.93 76.91 362.1C76.95 362.25 76.97 362.33 76.96 362.34C76.96 362.34 76.93 362.28 76.88 362.14C76.82 361.97 76.75 361.77 76.66 361.52C76.46 360.92 76.18 360.09 75.83 359.03L75.91 359.1C72.96 358.76 68.37 358.24 62.59 357.58C59.67 357.23 56.45 356.85 52.99 356.44C52.12 356.34 51.24 356.23 50.35 356.12C49.88 356.07 49.48 355.98 49.13 356.15C48.77 356.31 48.51 356.6 48.39 357.01C47.79 358.77 47.17 360.57 46.54 362.42L46.48 362.59H46.3C45.21 362.59 44.09 362.59 42.96 362.59L43.22 362.33C43.22 364.3 43.22 366.32 43.22 368.38L43 368.12L43.14 368.14C50.73 369.47 58 370.02 64.4 369.9C70.8 369.8 76.31 369.02 80.46 368.22L80.34 368.37C80.36 365.92 80.38 363.88 80.4 362.32L80.5 362.42C79.37 362.4 78.49 362.38 77.84 362.37C77.57 362.37 77.35 362.35 77.17 362.35C77.02 362.35 76.95 362.34 76.95 362.33V362.31Z" fill="#263238"/>
<path d="M76.62 396.27C67.57 397.73 57.57 397.52 46.99 396.27L45.55 382.1C56.71 383.3 67.66 383.35 78.37 382.1L76.62 396.27Z" fill="#AE7461"/>
<path d="M59.96 386.65C58.61 387.47 58.06 389.2 58.74 390.67L59.68 392.7C60.36 394.17 62.04 394.86 63.54 394.36L59.96 386.66V386.65Z" fill="#6F4439"/>
<path d="M60.59 386.35L64.17 394.05C65.52 393.23 66.07 391.5 65.39 390.03L64.45 388C63.77 386.53 62.09 385.84 60.59 386.34V386.35Z" fill="#6F4439"/>
<path d="M77.24 362.4C77.24 362.4 76.83 362.56 76.06 362.76C75.29 362.96 74.17 363.2 72.78 363.45C69.99 363.95 66.08 364.4 61.75 364.39C57.41 364.38 53.51 363.91 50.72 363.4C49.33 363.15 48.2 362.9 47.44 362.7C46.67 362.5 46.25 362.37 46.26 362.34C46.27 362.31 46.7 362.36 47.48 362.5C48.26 362.64 49.38 362.83 50.78 363.04C53.57 363.46 57.45 363.86 61.75 363.87C66.05 363.87 69.93 363.49 72.72 363.09C74.12 362.89 75.24 362.71 76.02 362.56C76.8 362.43 77.23 362.37 77.24 362.4Z" fill="#263238"/>
<path d="M95.05 292.91C95.05 292.91 89.34 294.14 88.35 298.19C87.36 302.24 96.3 399.19 96.66 401.55C97.22 405.26 100.35 409.97 107.4 409.72C113.54 409.5 197.25 409.69 218.33 409.74C221.13 409.74 222.81 407.36 223.18 404.52L119.54 398.4L95.05 292.9V292.91Z" fill="#E0E0E0"/>
<path d="M92.45 296.14L101.43 400.69C101.6 402.4 103.03 403.71 104.74 403.73L223.18 404.26L200.43 381.68L123.49 381.14L115.26 299.23C115.15 298.14 114.35 297.25 113.29 297L96.05 292.98C94.09 292.52 92.26 294.13 92.45 296.14Z" fill="#E0E0E0"/>
<path d="M92.45 296.14C92.45 296.14 92.42 295.97 92.43 295.64C92.44 295.31 92.53 294.79 92.89 294.23C93.24 293.68 93.92 293.07 94.9 292.9C95.39 292.8 95.94 292.89 96.47 293.03C97.02 293.16 97.6 293.29 98.22 293.43C100.71 294 103.77 294.7 107.37 295.53C109.17 295.94 111.11 296.39 113.17 296.87C114.25 297.05 115.24 298.01 115.36 299.2C115.48 300.32 115.59 301.47 115.72 302.66C117.65 321.6 120.4 348.66 123.7 381.13L123.48 380.93C146.57 381.08 172.62 381.26 200.42 381.44H200.52L200.59 381.51C207.88 388.74 215.54 396.35 223.35 404.09L223.8 404.54H223.16C221.5 404.53 219.71 404.52 217.91 404.51C187.11 404.36 157.77 404.23 131.08 404.1C124.41 404.07 117.9 404.03 111.58 404C110 404 108.43 403.98 106.87 403.98C106.09 403.98 105.33 403.98 104.53 403.96C103.71 403.91 102.91 403.57 102.31 403.01C101.71 402.46 101.31 401.69 101.2 400.89C101.11 400.11 101.07 399.37 101 398.62C100.87 397.12 100.75 395.63 100.62 394.15C99.62 382.33 98.68 371.31 97.83 361.26C96.14 341.16 94.77 324.89 93.82 313.63C93.36 308.01 93 303.65 92.76 300.68C92.64 299.21 92.56 298.08 92.5 297.31C92.44 296.55 92.43 296.16 92.43 296.16C92.43 296.16 92.48 296.55 92.55 297.3C92.62 298.07 92.73 299.19 92.86 300.66C93.13 303.63 93.52 307.99 94.02 313.6C95.01 324.85 96.43 341.12 98.19 361.21C99.06 371.26 100.02 382.27 101.05 394.1C101.18 395.58 101.31 397.07 101.44 398.57C101.51 399.32 101.56 400.09 101.64 400.82C101.74 401.52 102.09 402.19 102.62 402.68C103.15 403.17 103.84 403.47 104.56 403.51C105.31 403.53 106.1 403.52 106.87 403.53C108.43 403.53 110 403.54 111.58 403.55C117.9 403.57 124.41 403.6 131.08 403.63C157.77 403.74 187.11 403.87 217.91 404C219.71 404 221.5 404.02 223.16 404.02L222.98 404.46C215.18 396.72 207.52 389.11 200.23 381.88L200.41 381.95C172.6 381.74 146.56 381.55 123.47 381.37H123.27L123.25 381.17C120.03 348.69 117.34 321.63 115.46 302.68C115.34 301.5 115.23 300.35 115.12 299.23C115.01 298.15 114.13 297.27 113.12 297.1C111.06 296.61 109.13 296.16 107.33 295.73C103.74 294.88 100.68 294.16 98.2 293.57C97.58 293.42 97 293.28 96.45 293.15C95.9 293 95.4 292.92 94.92 293.01C93.97 293.16 93.3 293.74 92.95 294.27C92.59 294.81 92.49 295.32 92.47 295.65C92.44 295.98 92.47 296.15 92.45 296.15V296.14Z" fill="#263238"/>
<path d="M179.15 401.55H190.16L176.24 383.49H169.71L179.15 401.55Z" fill="#263238"/>
<path d="M96.52 300.87L104.93 391.71L120.6 379.25L113.86 302.72C113.81 302.11 113.34 301.61 112.73 301.52L98.05 299.42C97.19 299.3 96.45 300.01 96.54 300.87H96.52Z" fill="#263238"/>
<path d="M113.35 401.55H124.71L136.26 383.49H129.72L113.35 401.55Z" fill="#263238"/>
<path d="M127.29 401.55H138.3L144.34 383.49H137.8L127.29 401.55Z" fill="#263238"/>
<path d="M140.77 401.55H151.78L152.37 383.49H145.84L140.77 401.55Z" fill="#263238"/>
<path d="M153.27 401.55H164.28L160.21 383.49H153.68L153.27 401.55Z" fill="#263238"/>
<path d="M166.29 401.55H177.3L168.33 383.49H161.8L166.29 401.55Z" fill="#263238"/>
<path d="M189.61 398.03C189.61 398.12 172.82 398.19 152.12 398.19C131.42 398.19 114.62 398.12 114.62 398.03C114.62 397.94 131.41 397.87 152.12 397.87C172.83 397.87 189.61 397.94 189.61 398.03Z" fill="#E0E0E0"/>
<path d="M187.61 394.72C187.61 394.81 171.67 394.88 152 394.88C132.33 394.88 116.39 394.81 116.39 394.72C116.39 394.63 132.33 394.56 152 394.56C171.67 394.56 187.61 394.63 187.61 394.72Z" fill="#E0E0E0"/>
<path d="M187.61 391.71C187.61 391.88 172.61 392.02 154.1 392.02C135.59 392.02 120.59 391.88 120.59 391.71C120.59 391.54 135.59 391.4 154.1 391.4C172.61 391.4 187.61 391.54 187.61 391.71Z" fill="#E0E0E0"/>
<path d="M188.07 388.97C188.07 389.14 173.39 389.28 155.29 389.28C137.19 389.28 122.5 389.14 122.5 388.97C122.5 388.8 137.18 388.66 155.29 388.66C173.4 388.66 188.07 388.8 188.07 388.97Z" fill="#E0E0E0"/>
<path d="M189.61 386.97C189.61 387.14 174.83 387.28 156.61 387.28C138.39 387.28 123.61 387.14 123.61 386.97C123.61 386.8 138.38 386.66 156.61 386.66C174.84 386.66 189.61 386.8 189.61 386.97Z" fill="#E0E0E0"/>
<path d="M191.23 384.88C191.23 385.05 176.18 385.19 157.61 385.19C139.04 385.19 123.99 385.05 123.99 384.88C123.99 384.71 139.04 384.57 157.61 384.57C176.18 384.57 191.23 384.71 191.23 384.88Z" fill="#E0E0E0"/>
<path d="M103.09 400.69C109.93 394.29 116.77 387.89 123.61 381.49L103.09 400.69Z" fill="#E0E0E0"/>
<path d="M123.61 381.49C123.71 381.59 119.19 385.98 113.53 391.28C107.86 396.58 103.19 400.79 103.09 400.69C102.99 400.59 107.5 396.2 113.17 390.9C118.84 385.6 123.51 381.39 123.61 381.49Z" fill="#263238"/>
<path d="M463.16 309.98C463.16 309.98 462.15 299.37 435.7 292.57C422.93 289.29 392.44 287.71 388.99 307.53C388.88 308.17 373.82 432.8 373.82 432.8H430.18L463.16 309.97V309.98Z" fill="#455A64"/>
<path d="M454.23 432.81H428.23L436.91 310.7C437.55 304.76 443.7 300.47 450.65 301.13L452.98 301.35C459.93 302.01 464.33 308.7 464.13 316.33L454.23 432.8V432.81Z" fill="#455A64"/>
<path d="M430.18 428.41C430.04 428.4 431.87 404.35 434.28 374.69C436.69 345.03 438.76 321 438.9 321.01C439.04 321.02 437.21 345.07 434.8 374.73C432.39 404.38 430.32 428.42 430.18 428.4V428.41Z" fill="#263238"/>
<path d="M458.17 304.22C458.13 304.32 456.82 303.65 454.52 303.36C452.25 303.06 448.91 303.3 445.85 305.05C442.79 306.81 440.9 309.58 440.01 311.69C439.1 313.82 439.01 315.3 438.91 315.28C438.88 315.28 438.88 314.91 438.96 314.26C439.04 313.61 439.25 312.66 439.67 311.56C440.48 309.36 442.4 306.45 445.59 304.61C448.79 302.78 452.26 302.6 454.57 303.01C455.74 303.21 456.66 303.5 457.26 303.76C457.87 304.02 458.18 304.21 458.17 304.23V304.22Z" fill="#263238"/>
<path d="M376.06 151.56C376.32 144.41 371.48 143.45 367.75 144.27C363.22 140.94 356.34 141.31 352.2 145.12C348.8 143.27 344.44 143.34 341.11 145.3C337.78 147.26 335.6 151.05 335.57 154.91C331.68 154.43 327.61 156.67 325.93 160.21C324.25 163.75 325.1 168.32 327.93 171.03C323.77 172.55 321.18 177.45 322.27 181.74C323.36 186.03 327.98 189.1 332.36 188.45L376.22 159.24C378.85 156.47 375.93 155.37 376.07 151.55L376.06 151.56Z" fill="#263238"/>
<path d="M331.08 189.77C331.98 169.81 348.05 153.89 368.01 153.18L369.99 153.11C391.42 153.6 402.98 172.08 401.9 193.49L401.33 264.83L401.19 278.38L352.18 290.03L351.68 261.79C351.68 261.79 331 259.32 330.02 238.77C329.54 228.84 330.23 208.33 331.06 189.76L331.08 189.77Z" fill="#AE7461"/>
<path d="M351.53 261.76C351.53 261.76 364.69 262.08 378.19 252.92C378.19 252.92 372.38 267.94 351.8 266.82L351.53 261.76Z" fill="#6F4439"/>
<path d="M337.06 210.5C337.06 212.05 338.38 213.33 340 213.36C341.62 213.39 342.93 212.16 342.93 210.61C342.93 209.06 341.62 207.78 340 207.75C338.38 207.72 337.06 208.95 337.06 210.51V210.5Z" fill="#263238"/>
<path d="M362.46 209.85C362.46 211.4 363.78 212.68 365.4 212.71C367.02 212.74 368.33 211.51 368.33 209.95C368.33 208.4 367.01 207.12 365.4 207.09C363.78 207.06 362.46 208.29 362.46 209.85Z" fill="#263238"/>
<path d="M356.3 222.99C356.3 222.81 354.33 222.54 351.14 222.25C350.33 222.2 349.56 222.06 349.41 221.52C349.2 220.94 349.51 220.06 349.86 219.11C350.55 217.13 351.27 215.06 352.03 212.88C355.03 204.02 357.17 196.74 356.82 196.62C356.46 196.5 353.74 203.59 350.74 212.46C350.02 214.64 349.33 216.73 348.67 218.72C348.4 219.65 347.91 220.71 348.36 221.9C348.6 222.5 349.21 222.91 349.73 223.03C350.25 223.17 350.71 223.16 351.11 223.17C354.32 223.23 356.31 223.17 356.31 222.99H356.3Z" fill="#263238"/>
<path d="M365.68 224.85C365.17 224.84 365.28 228.27 362.43 230.81C359.59 233.36 355.92 233.1 355.91 233.58C355.87 233.8 356.75 234.22 358.29 234.2C359.8 234.2 362 233.63 363.74 232.08C365.48 230.52 366.18 228.5 366.24 227.09C366.32 225.65 365.91 224.82 365.67 224.84L365.68 224.85Z" fill="#263238"/>
<path d="M365.51 190.18C365.91 190.99 368.61 190.15 371.92 190.09C375.23 189.95 378.01 190.62 378.32 189.79C378.45 189.4 377.87 188.67 376.69 188.01C375.51 187.35 373.72 186.83 371.74 186.89C369.76 186.95 368.03 187.58 366.94 188.31C365.83 189.04 365.34 189.8 365.52 190.18H365.51Z" fill="#263238"/>
<path d="M336.07 192.03C336.59 192.77 338.8 192.13 341.42 192.22C344.04 192.22 346.23 192.93 346.77 192.2C347.01 191.85 346.7 191.11 345.76 190.39C344.84 189.67 343.27 189.04 341.47 189.01C339.67 188.98 338.08 189.56 337.14 190.25C336.18 190.94 335.84 191.67 336.07 192.03Z" fill="#263238"/>
<path d="M332.72 180.27C332.72 180.27 337.68 167.2 343.79 163.98C351.18 160.08 354.71 168.21 361.8 165.95C368.89 163.69 375.94 159.95 383.46 165.22C391.69 171 388.08 175.38 388.9 184.49C392.22 221.4 399.35 231.62 400.65 214.13C400.79 212.21 406.04 210.51 406.53 202.42C407.18 191.93 407.13 179.22 404.53 171.88C402.34 165.7 398.62 161.5 392.06 156.96C381.7 149.8 367.83 150.13 358.44 151.41C349.06 152.69 331.29 164.17 332.72 180.26V180.27Z" fill="#263238"/>
<path d="M399.32 213.62C399.34 210.44 401.98 207.84 405.15 208.03C409 208.26 413.34 210.28 413.37 218.22C413.42 232.29 399.28 229.44 399.26 229.04C399.24 228.77 399.29 219.52 399.32 213.63V213.62Z" fill="#AE7461"/>
<path d="M402.3 223.72C402.36 223.67 402.55 223.89 402.96 224.08C403.36 224.26 404.06 224.39 404.79 224.11C406.27 223.56 407.52 221.19 407.58 218.66C407.61 217.38 407.34 216.16 406.88 215.15C406.45 214.12 405.78 213.41 405.03 213.28C404.28 213.11 403.76 213.56 403.59 213.96C403.4 214.35 403.49 214.63 403.42 214.66C403.38 214.7 403.12 214.42 403.23 213.84C403.29 213.56 403.45 213.23 403.78 212.96C404.12 212.68 404.61 212.54 405.13 212.6C406.22 212.67 407.2 213.67 407.7 214.77C408.26 215.88 408.6 217.25 408.56 218.69C408.48 221.53 407.04 224.18 405.01 224.78C404.02 225.04 403.19 224.75 402.77 224.42C402.33 224.07 402.26 223.76 402.31 223.73L402.3 223.72Z" fill="#6F4439"/>
<path d="M398.08 186.39C396.3 187.7 394.42 189.05 392.22 189.35C390.03 189.65 387.47 188.47 387.02 186.31C386.82 185.34 387.02 184.19 386.35 183.46C385.55 182.59 384.14 182.92 382.97 183.08C378.9 183.66 374.61 180.92 373.43 176.98C372.44 178.58 370.01 178.6 368.39 177.64C366.78 176.68 365.7 175.05 364.42 173.68C363.14 172.31 361.36 171.11 359.51 171.44C358.48 171.62 357.53 172.28 356.48 172.22C354.63 172.12 353.65 169.99 353.31 168.17C352.97 166.35 352.67 164.22 351.07 163.28C349.59 162.41 347.73 163.01 346.04 163.32C344.35 163.63 342.14 163.31 341.65 161.66C341.39 160.8 341.73 159.87 342.19 159.09C344.26 155.57 348.97 153.87 352.81 155.26C354.02 150.57 358.23 146.8 363.03 146.12C367.83 145.44 372.92 147.89 375.39 152.06C378.26 149.26 382.54 147.97 386.48 148.73C390.42 149.48 393.92 152.25 395.57 155.92C398.96 154.9 402.9 156.08 405.17 158.8C407.44 161.52 407.89 165.61 406.28 168.76C408.86 170.11 411.11 172.55 411.27 175.45C411.43 178.36 408.69 181.36 405.86 180.69C407.07 182.91 406.26 186.02 404.11 187.37C401.96 188.71 398.81 188.08 397.34 186.02" fill="#263238"/>
<path d="M406.88 180.63C406.88 180.63 407.18 181.8 406.1 183.36C405.56 184.1 404.63 184.89 403.34 185.14C402.08 185.4 400.52 185.14 399.29 184.12L399.88 184.01C399.23 185.24 398.35 186.51 397.2 187.62C396.46 188.32 395.62 188.93 394.7 189.3C393.79 189.7 392.74 189.77 391.88 189.66C390.09 189.53 388.5 188.63 387.74 187.48C386.95 186.36 386.68 185.3 386.5 184.6C386.33 183.89 386.3 183.48 386.35 183.47C386.41 183.45 386.54 183.84 386.8 184.51C387.06 185.17 387.42 186.17 388.19 187.14C389.59 189.11 393.97 189.98 396.64 187.04C397.71 186.01 398.56 184.82 399.2 183.66L399.43 183.24L399.79 183.55C400.79 184.42 402.13 184.69 403.22 184.51C404.33 184.34 405.18 183.71 405.72 183.08C406.8 181.76 406.75 180.61 406.88 180.64V180.63Z" fill="#455A64"/>
<path d="M240.67 364.7C240.67 364.7 214.14 363.91 212.55 363.41C210.96 362.91 207.09 362.81 205.2 363.41C203.31 364.01 195.76 366.69 195.76 366.69L179.73 370.96C179.73 370.96 163.63 381.49 163.96 383.6C164.29 385.71 166.05 387.15 168.93 386.06C171.81 384.97 186.35 377.42 186.35 377.42L202.31 375.73C202.31 375.73 224.14 383.57 228.54 383.18C232.95 382.79 244.24 380.88 244.24 380.88C244.24 380.88 245.83 369.57 245.03 367.78C244.24 365.99 240.66 364.7 240.66 364.7H240.67Z" fill="#AE7461"/>
<path d="M165.12 392.97C165.12 392.97 178.56 378.55 182.29 376.61C186.02 374.67 206.75 371.27 206.75 371.27C206.75 371.27 213.39 368.52 215.82 369.49C218.25 370.46 244 374.35 245.14 374.51C246.27 374.67 239.63 397.19 239.63 397.19C239.63 397.19 230.72 398.81 220.36 396.38C209.99 393.95 206.43 390.71 206.43 390.71L196.08 387.99L189.75 390.4C189.75 390.4 188.61 399.77 184.08 399.29L181.97 397.83L183.59 387.46L176.95 390.21C176.95 390.21 171.77 397.98 167.88 396.85C163.99 395.72 165.13 392.96 165.13 392.96L165.12 392.97Z" fill="#AE7461"/>
<path d="M165.12 392.97C165.12 392.97 164.96 393.35 165.02 394.09C165.06 394.46 165.19 394.92 165.52 395.36C165.85 395.8 166.38 396.19 167.04 396.47C167.7 396.75 168.5 396.99 169.37 396.8C170.23 396.6 171.1 396.12 171.94 395.49C173.63 394.22 175.27 392.37 176.82 390.13L176.85 390.09L176.89 390.07C178.88 389.24 181.12 388.3 183.52 387.29L183.79 387.18L183.75 387.47C183.27 390.59 182.73 394.09 182.16 397.84L182.08 397.65C182.72 398.09 183.45 398.59 184.19 399.1L184.1 399.07C184.95 399.15 185.79 398.82 186.44 398.21C187.09 397.61 187.6 396.82 187.99 395.96C188.77 394.25 189.26 392.32 189.54 390.35L189.56 390.22L189.68 390.17C191.65 389.41 193.8 388.59 196.01 387.75L196.08 387.72L196.15 387.74C199.42 388.59 202.91 389.51 206.5 390.45H206.55L206.6 390.5C208.63 392.09 211.19 393.19 213.76 394.15C216.36 395.08 219.1 395.84 221.91 396.42C224.73 397 227.65 397.31 230.61 397.4C233.57 397.48 236.6 397.37 239.59 396.9L239.39 397.08C239.85 395.49 240.34 393.78 240.84 392.07C242.26 386.98 243.69 381.96 244.73 377.01C244.85 376.39 244.96 375.77 245.01 375.16C245.02 375.01 245.02 374.86 245.01 374.74C245.01 374.68 244.95 374.64 245.05 374.72C245.07 374.73 245.09 374.74 245.11 374.74H245.08L245.02 374.73L244.9 374.71L243.97 374.57C242.73 374.38 241.49 374.19 240.27 374C237.82 373.61 235.4 373.23 233.02 372.86C228.26 372.09 223.65 371.34 219.23 370.49C218.12 370.26 217.04 370.07 215.94 369.74C214.96 369.36 213.87 369.49 212.83 369.65C210.74 370.02 208.73 370.71 206.83 371.45H206.8L206.78 371.46C199.53 372.68 192.9 373.87 187.12 375.26C185.68 375.61 184.28 375.98 183 376.47C181.73 376.97 180.72 377.87 179.73 378.68C177.77 380.34 176.07 381.98 174.54 383.46C171.48 386.43 169.16 388.83 167.56 390.46C166.78 391.26 166.17 391.89 165.75 392.32C165.34 392.74 165.12 392.95 165.12 392.95C165.12 392.95 165.31 392.71 165.71 392.28C166.12 391.83 166.71 391.2 167.48 390.37C169.04 388.71 171.34 386.28 174.38 383.28C175.9 381.78 177.59 380.13 179.55 378.45C180.04 378.03 180.55 377.61 181.09 377.21C181.62 376.8 182.23 376.42 182.89 376.17C184.21 375.67 185.6 375.28 187.05 374.93C192.85 373.51 199.47 372.29 206.72 371.05H206.67C208.6 370.3 210.6 369.61 212.76 369.22C213.82 369.06 215 368.9 216.1 369.33C217.11 369.64 218.23 369.83 219.32 370.06C223.73 370.89 228.34 371.64 233.1 372.4C235.48 372.77 237.9 373.15 240.34 373.53C241.57 373.72 242.8 373.9 244.04 374.09L244.97 374.23L245.09 374.25H245.15L245.18 374.26C245.22 374.26 245.25 374.28 245.29 374.3C245.52 374.47 245.48 374.61 245.51 374.7C245.53 374.9 245.53 375.06 245.51 375.23C245.46 375.89 245.34 376.51 245.22 377.14C244.18 382.14 242.75 387.14 241.32 392.25C240.82 393.97 240.33 395.68 239.87 397.27L239.82 397.43L239.66 397.45C236.6 397.93 233.57 398.04 230.57 397.95C227.58 397.85 224.63 397.54 221.79 396.95C218.95 396.36 216.2 395.6 213.57 394.65C212.26 394.17 210.98 393.64 209.75 393.03C208.52 392.41 207.34 391.77 206.26 390.89L206.36 390.94C202.77 389.99 199.28 389.07 196.02 388.21H196.16C193.95 389.04 191.8 389.86 189.83 390.61L189.97 390.43C189.68 392.45 189.18 394.39 188.36 396.17C187.96 397.05 187.42 397.89 186.71 398.54C186.01 399.2 185.02 399.59 184.06 399.49H184.01L183.97 399.46C183.23 398.95 182.51 398.44 181.87 398L181.77 397.93L181.79 397.81C182.39 394.06 182.94 390.56 183.44 387.45L183.67 387.63C181.26 388.62 179.02 389.54 177.02 390.36L177.08 390.31C175.49 392.56 173.83 394.41 172.09 395.69C171.22 396.32 170.33 396.81 169.42 397C168.5 397.19 167.65 396.92 166.99 396.62C166.31 396.32 165.77 395.91 165.44 395.44C165.1 394.98 164.98 394.49 164.95 394.11C164.91 393.34 165.13 392.98 165.13 392.98L165.12 392.97Z" fill="#6F4439"/>
<path d="M205.83 380.77C205.83 380.77 205.46 380.79 204.81 380.74C204.16 380.69 203.21 380.6 202.05 380.48C200.84 380.35 199.47 380.19 197.97 380.03C197.58 379.98 197.19 379.94 196.79 379.89C196.39 379.83 196.04 379.86 195.62 379.91C194.81 380.02 193.96 380.22 193.1 380.43C189.73 381.41 186.35 382.06 185.05 384.06C184.36 384.97 184.04 385.86 183.85 386.48C183.67 387.1 183.62 387.46 183.58 387.46C183.55 387.46 183.53 387.09 183.65 386.43C183.78 385.78 184.06 384.84 184.75 383.84C185.1 383.35 185.55 382.85 186.12 382.43C186.69 382.02 187.4 381.67 188.13 381.41C189.59 380.88 191.22 380.37 192.96 379.92C193.83 379.7 194.69 379.51 195.54 379.4C195.95 379.34 196.43 379.32 196.83 379.39C197.23 379.44 197.62 379.5 198.01 379.55C199.51 379.76 200.88 379.95 202.08 380.12C203.24 380.29 204.17 380.43 204.82 380.55C205.47 380.67 205.82 380.74 205.82 380.78L205.83 380.77Z" fill="#6F4439"/>
<path d="M169.73 388.18C169.73 388.18 170.1 387.75 170.84 387.06C171.59 386.37 172.69 385.4 174.08 384.24C175.48 383.08 177.16 381.72 179.1 380.31C180.08 379.61 181.12 378.89 182.24 378.21C182.81 377.88 183.4 377.55 184.03 377.27C184.68 376.99 185.34 376.82 186.01 376.63C191.38 375.15 196.41 374.76 199.99 374.23C201.72 374.02 203.15 373.84 204.25 373.7C205.26 373.59 205.82 373.54 205.82 373.58C205.82 373.62 205.27 373.73 204.28 373.9C203.19 374.08 201.76 374.31 200.04 374.59C196.47 375.22 191.46 375.67 186.15 377.13C185.49 377.31 184.82 377.49 184.23 377.74C183.63 378 183.05 378.31 182.5 378.64C181.39 379.3 180.35 380 179.38 380.69C177.43 382.07 175.73 383.39 174.31 384.51C172.96 385.6 171.83 386.51 170.97 387.2C170.19 387.84 169.75 388.2 169.73 388.17V388.18Z" fill="#6F4439"/>
<path d="M337.26 294.25C337.26 294.25 330.19 303.96 324.58 315.63C319.78 325.63 304.23 359.68 304.23 359.68L240.9 363L241.83 387.47C241.83 387.47 302.99 409.26 316.69 405.06C330.38 400.86 344.97 385.07 344.97 385.07L351.52 281.87C351.52 281.87 346.09 280.85 337.25 294.26L337.26 294.25Z" fill="#F13C2F"/>
<path d="M350.5 282.09C350.5 282.09 334.26 318.92 331.89 334.52C327.18 365.49 325.6 384.88 325.6 384.88L320.08 432.81H428.23C428.23 432.81 431.81 343.98 429.51 314.19C427.79 291.88 410.7 277.98 403.7 270.34C403.28 269.88 401.35 263.63 401.35 263.63L350.95 276.54L350.49 282.09H350.5Z" fill="#F13C2F"/>
<path d="M345.27 287.69C345.27 287.69 345.24 287.81 345.15 288.04C345.05 288.29 344.91 288.62 344.74 289.04C344.36 289.95 343.82 291.24 343.12 292.89C341.73 296.24 339.72 301.09 337.71 307.24C335.68 313.39 333.69 320.85 332.12 329.27C330.51 337.68 329.21 347.02 328.12 356.84C326.13 376.52 324.32 394.33 323.01 407.25C322.34 413.68 321.8 418.89 321.42 422.52C321.22 424.3 321.07 425.69 320.96 426.67C320.9 427.12 320.86 427.48 320.83 427.75C320.8 427.99 320.78 428.12 320.77 428.12C320.77 428.12 320.77 427.99 320.77 427.75C320.79 427.48 320.82 427.12 320.85 426.67C320.94 425.69 321.06 424.29 321.21 422.51C321.55 418.87 322.04 413.65 322.64 407.22C323.89 394.31 325.54 376.48 327.59 356.79C328.68 346.95 330 337.61 331.64 329.19C333.24 320.76 335.27 313.28 337.35 307.13C339.42 300.98 341.48 296.14 342.93 292.81C343.65 291.14 344.24 289.87 344.64 289C344.83 288.59 344.99 288.26 345.1 288.02C345.21 287.8 345.26 287.69 345.27 287.69Z" fill="#263238"/>
<path d="M408.93 334.29C400.71 363.36 382.22 398.84 376.55 405.96C365.46 419.88 350.8 422.89 342.05 422.89C334.61 422.89 271.73 410.64 253.09 406.98C249.94 406.36 247.48 403.92 246.82 400.79L246.66 400.02L238.27 397.76L242.74 375.25L243.63 374L333.56 376.83L359.72 303.96C360.21 303.13 367.77 278.68 388.26 279.79" fill="#F13C2F"/>
<path d="M388.26 279.79C388.26 279.79 388.03 279.79 387.58 279.79C387.13 279.79 386.46 279.75 385.58 279.84C383.82 279.94 381.18 280.3 378.02 281.64C374.89 283 371.34 285.45 368.15 289.25C364.93 293.03 362.1 298.02 359.85 304.03V304.01C353.25 322.47 344.28 347.54 333.78 376.9L333.72 377.06H333.55C306.79 376.22 276.21 375.27 243.62 374.26L243.84 374.15C243.56 374.54 243.26 374.97 242.95 375.4L242.99 375.3C241.7 381.81 240.32 388.74 238.94 395.74C238.8 396.45 238.66 397.16 238.53 397.81L238.34 397.51C241.25 398.29 244.07 399.05 246.73 399.77L246.89 399.81L246.91 399.96C247.2 401.83 248.01 403.56 249.38 404.81C250.05 405.43 250.83 405.94 251.68 406.28C252.52 406.64 253.43 406.78 254.37 406.97C258.07 407.69 261.74 408.41 265.38 409.12C272.67 410.52 279.84 411.9 286.88 413.26C300.97 415.93 314.55 418.47 327.49 420.66C330.73 421.2 333.93 421.71 337.09 422.16C338.67 422.36 340.25 422.58 341.8 422.65C343.36 422.67 344.92 422.59 346.46 422.42C352.61 421.76 358.42 419.82 363.46 416.97C368.52 414.12 372.74 410.31 376.14 406.15C377.82 404.06 379.17 401.78 380.5 399.57C381.81 397.34 383.05 395.14 384.22 392.96C393.53 375.53 399.63 360.76 403.5 350.47C405.4 345.31 406.76 341.26 407.62 338.5C408.04 337.13 408.37 336.08 408.59 335.36C408.81 334.65 408.94 334.29 408.94 334.29C408.94 334.29 408.85 334.66 408.64 335.37C408.43 336.09 408.12 337.15 407.72 338.53C406.89 341.3 405.57 345.36 403.69 350.54C399.87 360.86 393.82 375.66 384.54 393.13C383.37 395.31 382.14 397.52 380.83 399.76C379.49 401.98 378.15 404.27 376.45 406.4C373.03 410.6 368.77 414.45 363.67 417.34C358.58 420.23 352.73 422.2 346.51 422.87C344.96 423.05 343.38 423.13 341.8 423.11C340.2 423.04 338.63 422.82 337.04 422.62C333.87 422.18 330.67 421.66 327.42 421.13C314.46 418.95 300.88 416.42 286.79 413.76C279.75 412.41 272.57 411.03 265.29 409.63C261.65 408.92 257.98 408.2 254.28 407.48C253.37 407.3 252.4 407.15 251.5 406.77C250.59 406.4 249.76 405.86 249.05 405.2C247.59 403.89 246.71 401.97 246.42 400.08L246.61 400.28C243.95 399.56 241.13 398.81 238.22 398.02L237.98 397.96L238.03 397.72C238.16 397.07 238.3 396.36 238.44 395.65C239.83 388.65 241.2 381.72 242.5 375.22V375.17L242.54 375.12C242.85 374.69 243.15 374.26 243.43 373.87L243.51 373.76H243.65C276.24 374.8 306.82 375.77 333.58 376.63L333.36 376.78C343.93 347.44 352.95 322.39 359.6 303.94V303.91C361.84 297.97 364.74 292.9 367.99 289.13C371.22 285.32 374.81 282.86 377.97 281.52C381.16 280.2 383.82 279.87 385.58 279.79C386.47 279.72 387.14 279.78 387.59 279.79C388.04 279.8 388.27 279.82 388.27 279.82L388.26 279.79Z" fill="#263238"/>
<path d="M313.74 371.06C313.59 371.14 312.34 367.81 309.4 364.7C306.5 361.55 303.27 360.07 303.36 359.92C303.38 359.87 304.22 360.16 305.45 360.87C306.68 361.58 308.29 362.75 309.78 364.34C311.26 365.94 312.32 367.62 312.94 368.9C313.56 370.18 313.79 371.03 313.74 371.05V371.06Z" fill="#263238"/>
<path d="M344.44 394.46C344.35 394.47 344.18 393.31 343.65 391.49C343.13 389.68 342.19 387.23 340.7 384.77C339.2 382.32 337.45 380.36 336.07 379.07C334.69 377.78 333.74 377.09 333.79 377.02C333.81 376.99 334.07 377.14 334.52 377.43C334.97 377.72 335.59 378.18 336.32 378.8C337.78 380.04 339.61 381.99 341.15 384.5C342.68 387.01 343.58 389.53 344.01 391.4C344.23 392.33 344.36 393.1 344.41 393.63C344.46 394.16 344.48 394.46 344.44 394.46Z" fill="#263238"/>
<path d="M401.95 270.35C401.95 270.35 401.78 270.43 401.46 270.52C401.07 270.63 400.6 270.76 400.02 270.91C398.69 271.26 396.9 271.74 394.72 272.32C390.24 273.51 384.07 275.22 377.22 276.94C370.36 278.67 364.09 280.01 359.51 280.76C357.22 281.14 355.36 281.4 354.07 281.54C353.47 281.6 352.98 281.65 352.58 281.69C352.24 281.72 352.06 281.72 352.06 281.71C352.06 281.69 352.23 281.65 352.57 281.59C352.97 281.52 353.45 281.44 354.04 281.34C355.32 281.15 357.17 280.83 359.44 280.4C363.99 279.56 370.24 278.17 377.09 276.44C383.94 274.71 390.13 273.06 394.63 271.96C396.88 271.4 398.71 270.98 399.98 270.71C400.57 270.59 401.05 270.49 401.44 270.41C401.78 270.35 401.95 270.32 401.96 270.34L401.95 270.35Z" fill="#263238"/>
</g>
<defs>
<clipPath id="clip0_50_930">
<rect width="464.13" height="432.81" fill="white"/>
</clipPath>
</defs>
</svg>
